/* XPM */
static char *d8ddbe809f6449618037f84e8acbc1c3[] = {
/* columns rows colors chars-per-pixel */
"50 50 2 1 ",
"  c None",
". c black",
/* pixels */
"                                                  ",
"                                                  ",
"                                                  ",
"                                                  ",
"                                                  ",
"                                                  ",
"                                                  ",
"                                                  ",
"                                                  ",
"                                                  ",
"                                                  ",
"                                                  ",
"                                                  ",
"                                                  ",
"                                                  ",
"                                                  ",
"                                                  ",
"                      .....                       ",
"                     .......                      ",
"                    .........                     ",
"                   ....   ....                    ",
"                   ...     ...                    ",
"                   ..       ..                    ",
"                   ..       ..                    ",
"                   ..       ..                    ",
"                   ..       ..                    ",
"                   ..       ..                    ",
"                   ...     ...                    ",
"                   ....   ....                    ",
"                    .........                     ",
"                     .......                      ",
"                      .....                       ",
"                                                  ",
"                                                  ",
"                                                  ",
"                                                  ",
"                                                  ",
"                                                  ",
"                                                  ",
"                                                  ",
"                                                  ",
"                                                  ",
"                                                  ",
"                                                  ",
"                                                  ",
"                                                  ",
"                                                  ",
"                                                  ",
"                                                  ",
"                                                  "
};
