/* XPM */
static char *_5fb75bfdbea4968f6ddb8d16cea8854jlSJ7ClsKZVDCpqd[] = {
/* columns rows colors chars-per-pixel */
"50 50 5 1 ",
"  c None",
". c black",
"X c #1E6C09",
"o c #AF5616",
"O c #CF6518",
/* pixels */
"                                                  ",
"                                                  ",
"                                                  ",
"                               ..                 ",
"                             .....                ",
"                            ..XXX.                ",
"                            .XXXX.                ",
"                           .XXXXX. .....          ",
"                          ..XXXXX...XXXX.         ",
"                          .XXXXX...XXXXXX.        ",
"                          .XXXXX..XXXXXX..        ",
"                           .XXXX.XXXXXXX.         ",
"                           .XXX..XXX........      ",
"                        ....XX..XXX....XXXX..     ",
"                      ..OO...X.XX...XXXXXXXX.     ",
"                    ..OOOOOO...X..XXXXXXXXXX.     ",
"                   ..oOOOOOOO..X.XXXXXXXXXXX.     ",
"                   .OoOOOOOOOO...XXXXXXXXXXX.     ",
"                  .OOoOOOOOOOOO.....XXXXXXX..     ",
"                 ..OOoOOOOOOOOO.   ....X...       ",
"                 oOOOooOOOOOOOO..     ...         ",
"                .oOOOOooOOOOOOOO.                 ",
"                .ooOOOOOOOOOOOOO.                 ",
"                .OoOOOOOOOOOOOOO.                 ",
"               .OOooOOOOOooOOOOO.                 ",
"               .OOOooOOOOOooOOOO.                 ",
"               oOOOOOOOOOOOooOO..                 ",
"              .oOOOOOOoOOOOOooo.                  ",
"              .ooOOOOOooOOOOOOO.                  ",
"              .OoOOOOOOooOOOOO.                   ",
"              .OOooOOOOOoooOO.                    ",
"             .oOOOOOOOOOOOoo.                     ",
"            ..oOOOOOoOOOOO..                      ",
"            .OoOOOOOooOO..                        ",
"           ..OoooOOOOoo.                          ",
"           .OOOOOooO..                            ",
"           .OOO.....                              ",
"          ..O...                                  ",
"          ....                                    ",
"                                                  ",
"                                                  ",
"                                                  ",
"                                                  ",
"                                                  ",
"                                                  ",
"                                                  ",
"                                                  ",
"                                                  ",
"                                                  ",
"                                                  "
};
