/* XPM */
static char *sprite_player_up1712252718[] = {
/* columns rows colors chars-per-pixel */
"50 50 195 2 ",
"   c #090D1E",
".  c #4D3328",
"X  c #3D4E31",
"o  c #4B5D36",
"O  c #567432",
"+  c #3F3B47",
"@  c #4D4447",
"#  c #A05C39",
"$  c #CD7A3E",
"%  c #D17736",
"&  c #D4763A",
"*  c #D47B3B",
"=  c #DB783A",
"-  c #E37F3B",
";  c #B57755",
":  c #987B6E",
">  c #C47E41",
",  c #DB7F43",
"<  c #6A9434",
"1  c #72A72A",
"2  c #76AB2D",
"3  c #79AD2F",
"4  c #79A630",
"5  c #7BAE31",
"6  c #7EB032",
"7  c #7EB038",
"8  c #779349",
"9  c #7FA048",
"0  c #8B9F36",
"q  c #A0973E",
"w  c #87A536",
"e  c #8AA637",
"r  c #82AB35",
"t  c #89AC37",
"y  c #83AC3A",
"u  c #8CA93C",
"i  c #93A33C",
"p  c #98A23B",
"a  c #92AC3D",
"s  c #99AB3F",
"d  c #83B234",
"f  c #89B537",
"g  c #86B23B",
"h  c #8BB639",
"j  c #8EB83A",
"k  c #93B13E",
"l  c #91BA3C",
"z  c #A4A13E",
"x  c #C4803E",
"c  c #E2813D",
"v  c #EC843E",
"b  c #979B40",
"n  c #AE8D44",
"m  c #BF8745",
"M  c #A99243",
"N  c #AA9946",
"B  c #B59745",
"V  c #BD9647",
"C  c #B49B46",
"Z  c #BB9755",
"A  c #8AAF44",
"S  c #9DA644",
"D  c #86B242",
"F  c #8BB245",
"G  c #8CB349",
"H  c #91B74C",
"J  c #9DB14A",
"K  c #8AB150",
"L  c #98B757",
"P  c #9ABB5A",
"I  c #A7A246",
"U  c #B0A651",
"Y  c #AB8E7C",
"T  c #9FBB63",
"R  c #AFAA62",
"E  c #B9AA69",
"W  c #A5B569",
"Q  c #ADBA73",
"!  c #AEBB7A",
"~  c #B2BD7E",
"^  c #CA824B",
"/  c #CF8E4A",
"(  c #D58145",
")  c #D8854A",
"_  c #D48C4E",
"`  c #DC8A4B",
"'  c #CB924B",
"]  c #DB914E",
"[  c #CF8D57",
"{  c #D18551",
"}  c #DE8B57",
"|  c #DD8C54",
" . c #C4955D",
".. c #C5995D",
"X. c #D39455",
"o. c #DA9257",
"O. c #DC9459",
"+. c #E48543",
"@. c #EA8643",
"#. c #E48845",
"$. c #E4874A",
"%. c #E3894C",
"&. c #E98B4E",
"*. c #E58D53",
"=. c #E48E58",
"-. c #E29156",
";. c #E99657",
":. c #E2935D",
">. c #C6A455",
",. c #CB9962",
"<. c #DB9965",
"1. c #D69669",
"2. c #E39564",
"3. c #E49B64",
"4. c #E89D6C",
"5. c #E39F72",
"6. c #C3A167",
"7. c #DCA36C",
"8. c #CFA67B",
"9. c #DDA77A",
"0. c #EAA46D",
"q. c #E4A374",
"w. c #EAA676",
"e. c #E4AA7D",
"r. c #B9C27C",
"t. c #A08F8E",
"y. c #BCBF85",
"u. c #B9A99D",
"i. c #DCA584",
"p. c #DCAC8B",
"a. c #C1BB82",
"s. c #DEB28D",
"d. c #D8B59A",
"f. c #E1A782",
"g. c #E5AB81",
"h. c #EAAC84",
"j. c #E2AD89",
"k. c #F2AE83",
"l. c #E2B38D",
"z. c #E8B58B",
"x. c #E8AF90",
"c. c #E9B692",
"v. c #E5B996",
"b. c #F1BE9A",
"n. c #C1AEA4",
"m. c #CAB8AF",
"M. c #EBBDA1",
"N. c #E6BFAD",
"B. c #BDC085",
"V. c #BECB8E",
"C. c #C7C38F",
"Z. c #C3C993",
"A. c #CEC59B",
"S. c #CDCD99",
"D. c #D7C29F",
"F. c #EDC19E",
"G. c #F1C19E",
"H. c #C9C7A3",
"J. c #D6C6AD",
"K. c #D7CCAA",
"L. c #DACBB2",
"P. c #DED6BD",
"I. c #ECC3A5",
"U. c #E2CBA3",
"Y. c #ECC3AB",
"T. c #EDC9AD",
"R. c #F2C6A6",
"E. c #F3CBAC",
"W. c #E4C2B1",
"Q. c #E7CAB6",
"!. c #EDCCB5",
"~. c #E6CCBE",
"^. c #ECCDBC",
"/. c #F3CCB5",
"(. c #F8CFB7",
"). c #F3CEB9",
"_. c #E8D5BA",
"`. c #F6D1B6",
"'. c #F4D3BC",
"]. c #E9CDC1",
"[. c #ECD4C3",
"{. c #E7DAC1",
"}. c #ECD9C3",
"|. c #EFDBC9",
" X c #F3D5C4",
".X c #F8D6C4",
"XX c #F6D9C5",
"oX c #F9DBC5",
"OX c #F3D6CA",
"+X c #F8D7CB",
"@X c #F4DACC",
"#X c #F9DCCC",
"$X c #F3DBD1",
"%X c #F9DBD2",
"&X c #FAE0D5",
/* pixels */
"7 5 5 5 7 6 6 7 5 d 5 6 6 6 6 3 6 3 6 5 3 3 5 3 5 5 5 5 5 5 5 5 6 3 3 3 6 6 6 d 2 2 3 6 6 6 6 6 6 7 ",
"5 2 5 5 3 3 3 3 3 d 5 3 3 5 h 3 3 3 2 7 3 2 d h 3 1 2 3 f 5 5 5 3 6 3 6 3 2 3 d 3 3 3 6 2 3 3 d 6 6 ",
"5 2 d f 5 3 3 3 3 5 2 d d 3 2 6 d 3 i C e d d 5 5 2 2 2 5 5 5 3 3 d d l 3 6 d 3 3 3 3 3 2 3 2 2 2 6 ",
"5 2 2 1 3 3 d d 5 5 2 3 3 3 3 f d z / ` q 3 2 3 3 2 2 f 5 5 3 d 3 3 6 6 3 3 3 2 3 f 3 3 2 3 3 3 d 6 ",
"3 3 3 2 3 2 3 3 5 j 5 3 3 3 3 3 i ) @.#.m k 3 h 3 2 2 f d 5 3 d 2 3 3 3 3 3 2 3 3 2 2 d 3 6 3 3 6 3 ",
"3 l h 3 3 3 3 3 2 2 2 3 5 3 3 r V #.v c x e d d 5 5 2 2 3 3 2 3 2 3 6 3 6 3 2 3 3 3 2 3 3 3 2 2 3 2 ",
"5 d 3 3 2 3 d 3 2 3 2 2 5 5 d i #.@.v = * i 3 3 3 6 d 2 6 J I y 2 2 f d j 6 6 d 3 3 3 6 3 d 3 3 3 3 ",
"5 3 3 3 3 f f 3 f 2 2 2 5 f f B #.@.c = * N j 5 3 3 6 5 I X.O.N 2 3 3 6 3 3 6 6 3 3 3 6 d f 3 d 6 3 ",
"5 5 5 r 3 6 6 3 2 3 2 2 2 5 w / @.( % % & n 5 2 3 3 5 U O.g.E.,.r 3 3 3 d 2 3 3 3 3 3 3 6 3 3 2 3 3 ",
"5 5 3 6 3 3 3 3 j d 3 2 1 2 S ) | <.f.g.q. .k h 3 A >.-.f.). X,.k 3 3 3 d d 6 6 6 6 l 3 6 d 3 3 6 6 ",
"6 3 3 3 3 3 3 3 3 2 2 2 5 5 q <.Y..XoXR.k.3.V i s 7.%.q.Y..X(.Z d 2 2 6 d f f d 3 3 6 3 3 3 3 6 3 6 ",
"6 5 d 3 3 3 3 6 3 2 3 3 2 5 R _.@X`.g.| #.#.@.@.` &.-.x.Y.+XM.N d f d 3 2 3 3 6 3 2 6 6 d 3 3 6 3 7 ",
"f d f 5 3 h d f 6 2 d 2 2 7 K.@XE.3.@.@.@.@.@.@.@.@., 2.Y..Xf.b 2 3 3 2 6 6 6 2 3 2 d 3 h 3 6 d 3 d ",
"5 3 2 3 5 5 3 6 6 3 3 2 2 P |.!.9.e.*.@.@.@.@.@.v @.- =.N.(.,.r d 2 3 2 d 3 f 3 d 3 2 2 3 2 3 3 3 5 ",
"5 3 3 3 6 3 3 d 3 d 3 d 3 V.|.p.2.5.;.@.@.@.@.@.@.@.@.{ R.c.M 4 d 2 2 6 2 2 2 2 2 2 2 2 2 2 2 3 3 3 ",
"5 3 2 2 1 3 3 d 6 6 3 5 G P.!.d.Y ` @.@.@.@.@.@.@.@.@., e.,.0 2 2 3 6 d 3 6 2 2 2 3 d 3 6 3 2 3 6 5 ",
"3 6 d 3 2 3 3 3 5 < O 9 H.$XM.: . { @.@.@.@.v @.@.v @.c ( n 4 2 3 3 3 3 3 d 3 3 6 6 h d d 2 3 3 7 2 ",
"3 6 f 6 3 3 3 3 4 X   @ ~.OXv.; # $.@.@.@.@.@.v #.v @.c > p d 3 j d 6 3 3 d 6 d 3 6 3 6 2 2 3 3 2 2 ",
"6 3 2 1 2 h 2 6 5 o + t.]. XE.2.%.&.=.:.3.2.2.%.#.#.@.+.^ 4 d r R P 3 3 6 3 6 6 3 6 3 f 3 2 3 d 2 2 ",
"3 2 2 2 3 3 3 2 3 8 m.&X%X$XOX XM.b.E.'.XX.X'.G.w.:.-.` Z r r I 7.K.H 3 3 3 3 6 6 3 3 3 3 3 3 3 3 3 ",
"3 2 2 3 6 3 2 3 3 K u.u.n.m.OX@X%X@X@XOXOX+X@X+X.X'.(.E.U.A U ] e._.P 6 2 2 2 3 3 2 3 2 3 3 3 3 5 5 ",
"5 6 7 3 f 6 3 6 3 7 V.[.~.[.|.$X@X@X@X$X$X$X@X+X%X.XE.M.c.7.-.` b.{.V.G 3 3 2 3 3 6 3 3 l 2 3 h 3 2 ",
"3 6 6 2 3 3 6 f 3 3 D Z.}.@X$XOX@X@X@X@X$X$XOX.XI.l.M.R.0.-.#.w.'.XX XW f 2 2 d d 6 3 3 6 2 2 3 3 3 ",
"3 2 3 2 3 3 3 3 6 3 3 9 P V.~.OX@X@X@X@X@X.X'.l.v..X.Xk.&.%.w.'.@X@X^.D.W 3 3 3 6 6 3 3 3 2 3 3 3 5 ",
"6 2 3 1 3 3 h d 5 2 f 5 5 3 D ! ~.OX@X@X@X/.p.!.@XXX(.2.$.4.'.@XOX+XW.!.}.Q 5 3 l f 2 2 j 3 3 3 5 7 ",
"g 3 f 2 3 3 3 3 5 2 2 2 3 2 5 5 J.@X@X@X'.s.'.@X@X@X(.O.$.b.oX@XOXOXd. X@X}.W 2 3 2 2 1 5 3 d d 3 6 ",
"5 3 2 3 6 3 3 2 3 5 3 3 3 d 3 f J.OX X'.s.T.$X@X@X|. X2.=.E.@XXX].N.v.@X@X@X_.L 5 5 f 2 2 3 6 3 3 6 ",
"g d 3 3 d d 2 3 r 3 6 3 2 d 5 j K.OXT.e.l.@X@X@X@XXX$Xv.> j.!.Q.N.p.^.@XOX@X@XC.5 2 2 2 2 3 3 3 3 5 ",
"5 2 2 3 3 2 3 2 2 5 5 2 2 2 2 7 L.(.0.<.XX@X@X@X@XOX@X@Xc.1.i.p.p.T.@X@X@X@X@X}.H 2 2 2 2 5 3 3 d 6 ",
"d d d 2 3 3 1 3 2 2 3 5 5 5 2 5 A.v.| h.#X@X@X@X@X@X@X@X$X.X).].@X@X|.@X@X@X@X$X~ f 3 2 2 d 2 2 2 5 ",
"d f d 2 d 3 3 3 2 5 6 f 2 2 5 f r.q.` R.%X@X@X@X@X@X@X@X$XOX%X@X@X@X@X$X@X|.@X|.S.d 2 1 2 2 3 2 2 5 ",
"5 3 3 3 3 3 3 j 2 2 2 5 d 5 5 d J o.=.(.+X$X@X@X@X@X@X@X@X@XOX%X@X$X@X@X@X@X@X@XS.3 3 3 2 3 2 2 3 5 ",
"5 2 2 5 5 2 2 2 2 2 3 h d 6 6 3 a _ :.`.@X@X@X@X@X@X@X%X$X@X+X@X@X@X@X@X@X@X@X@XS.2 2 2 2 h d 3 6 3 ",
"5 3 3 3 3 2 2 3 3 3 2 2 3 3 3 f e X.O.c.@X@X@X@X#X@X@X@X@X@X$XOX@X@X@X@X@X@X@X@Xa.2 3 6 1 5 3 6 f 3 ",
"5 5 5 3 2 1 f 3 d d 3 h 3 3 3 5 r ' ` g.#X@X@X@X@X@X@X@X@X$X$X[.OX%X@X@X@X@X@X}.E d 6 d 2 3 3 3 6 3 ",
"5 2 2 2 3 3 6 3 3 2 3 2 3 3 2 3 3 B c q.#X@X@X@X@X@X@X%X@X@X@X[.OX@X@X@X@X@X|.!.U 3 5 6 2 3 2 3 d 2 ",
"7 3 3 2 2 2 3 1 2 3 3 3 2 3 2 2 3 i ) | .X@X@X@X@X@X@X@X@X$X@X].OX$X@X@X@X@XXXv.i 3 5 3 2 2 2 2 2 2 ",
"5 3 3 2 3 3 3 3 3 3 5 6 3 3 2 2 h 3 Z ( I.@X|.@X%X@X@X@X@X@X@X~.@X@X@X@X@X'.E.6.r 3 3 3 d d 2 2 2 2 ",
"j 3 h 6 7 3 3 l 6 f 6 d 5 3 2 2 3 3 s / 9.oX).M.%X@XXX@X%X@X}.~.@X@X^./.XXs.9.C f 3 3 3 f d d 2 2 3 ",
"g 3 6 6 3 3 3 6 3 3 3 2 2 2 2 2 2 7 Q d.[ E.R.7.XXF.!.@X@X@X~.Q.Y.XXj.F.E.o./ a d 3 2 2 3 3 2 3 2 3 ",
"3 2 d d 3 6 2 3 3 3 2 3 2 3 2 2 6 P }. Xi.1.0.%.w.-.z.'.^._.A.v.} b.O.w.;.$.B 2 2 2 3 2 2 2 2 2 3 5 ",
"3 2 2 2 3 2 6 d 3 2 2 f 2 2 2 2 d F H.J.d...$.v v @.3.l.8.T G 6.* *.$.$.@./ t 3 3 3 3 d f d 3 2 3 D ",
"3 3 2 6 3 6 j j 3 3 2 2 2 1 2 2 3 3 D G F y B $.@.+.( [ b d 3 i $ = @.@.) s j f 3 3 2 d 3 3 3 3 3 5 ",
"3 d d d 2 3 3 2 3 3 2 d f f 6 3 3 6 3 3 6 3 f V c * & > e f 3 S > * = * M 5 3 3 6 d 3 3 d 3 3 3 3 3 ",
"3 6 d f 2 2 2 2 2 2 2 6 6 3 3 3 3 d 3 3 3 3 5 u 1.^ [ ..7 6 3 7 Z { { ..r 3 2 2 2 2 2 2 3 3 3 3 3 3 ",
"3 6 2 2 3 2 2 2 2 2 2 2 3 3 2 2 3 2 3 3 3 2 2 T @X'.!.C.6 3 2 3 B.!._. XP 2 3 2 5 2 2 2 3 3 6 3 3 6 ",
"6 3 6 2 6 6 2 2 2 2 3 6 2 2 3 3 5 3 3 6 3 3 3 D ~ y.Q D 2 2 2 3 g Q B.! r 2 2 2 d 5 2 j 5 3 j 3 3 3 ",
"6 3 6 h 2 6 2 5 l 2 3 6 2 3 3 6 3 3 3 d 5 3 6 d 3 3 3 r 3 3 2 2 f 2 3 2 2 d 1 2 2 2 2 6 3 3 d 5 3 3 ",
"6 2 2 6 3 d 3 6 3 3 3 3 3 7 f j 3 6 d 3 2 3 6 7 3 3 3 3 3 6 3 2 2 5 3 d 2 5 2 2 1 3 f d d 2 6 d 3 3 ",
"6 2 3 6 3 7 6 3 6 3 6 3 3 6 6 6 3 3 3 2 2 h 6 6 6 3 3 3 3 3 3 3 5 f 3 r 2 3 5 5 2 5 5 5 5 5 6 5 2 5 "
};
