/* XPM */
static char *sprite_background1712252715[] = {
/* columns rows colors chars-per-pixel */
"50 50 44 1 ",
"  c #72A72A",
". c #73A82A",
"X c #74A92B",
"o c #73A82C",
"O c #74A82C",
"+ c #75AB2C",
"@ c #77AB2D",
"# c #77AB2F",
"$ c #77AC2D",
"% c #77AC2F",
"& c #78AB2D",
"* c #78AC2D",
"= c #7AAF2F",
"- c #7BAF2F",
"; c #79AC30",
": c #7BAE32",
"> c #7BAF33",
", c #7DAF30",
"< c #7CAF34",
"1 c #7BB031",
"2 c #7CB030",
"3 c #7EB033",
"4 c #7EB036",
"5 c #80AF31",
"6 c #83B033",
"7 c #81B233",
"8 c #83B334",
"9 c #82B235",
"0 c #82B237",
"q c #85B234",
"w c #83B435",
"e c #86B435",
"r c #88B435",
"t c #89B436",
"y c #8AB537",
"u c #8CB637",
"i c #87B438",
"p c #8AB638",
"a c #8BB739",
"s c #8DB73A",
"d c #8EB83A",
"f c #8FB83A",
"g c #93BA3B",
"h c #92BA3C",
/* pixels */
"4::,:::4:4,:4:-,::>::X,::::%>::,::::>,:,:@@:::4,:4",
":@,,:1=1@q,:=3y=#@@5==9y@ @$p::,=,&,#@@9:@,,@@=q13",
":oee-@@===@97@@3-$@5,:-2:@@$=::$=5qg:-q:<,;:@=@@$:",
":@@.,@qq=:&@@=:e5:@:,-===.@e,==9==::=@,@@q&&&=:&e:",
":=2.:@==@p,=&==:-q=@gy7y=X@yq-,q$:1&=$$$@@@q$3&&=:",
":gy@@@:@@@@=====&9:&93=7=:@&&&&&$$-=:=$$$@$$=$@@=$",
":7:@@:-,:=@=,:3X:2:==3===-7&=e:,.$y3g=3e:=$3:7===:",
":@@,-pq&q@@X,qe1=q==3dd2@,-@@:,&$$3=:=3=::$37q=7-=",
":=-5=-:@@$@@@@&::=====:=@:3=&&:@@=@====1&$:,=,@@&,",
":=,-:,$=pq,oo@q:y@=q=7yp@9-:=X,-t===-q=,3:h&,7:&--",
"<,,@&&===@$$==7:3@@:@ @.@@@@s=$:3=@:-isq$=,=:===,,",
"5<,&&,=-= =:==@&&=@@@@@@@=@=7$=:9yq&,,:=$@,,3==7:<",
"i<y=@sqy=&7@@@&s@@==@@@@=7@=@X@$===@=:,@=@9=p=,9@9",
"<,@==:===::&.@.&$@q99@=5@.$4@=-=3@@@y=p:q@X@:@@:::",
"::$@-$=9=5:5=@o=:&=@=@:9..@p,&-&9@@=@@@@@@@@@@@=@&",
":@@@&&=9,7====377@@9$@@$=:@@:&&&@,-q@: @@,5=,@@&9=",
"&55=@@:&==&=,&==5&@7$$$@@@$@o==@:=$$=q===9eqqo$&9&",
",-t:@==:@:&,,=&=@=@=$q:7:q$.3X7=pq3=$e3q-,=3@@:=XX",
"<:@ @y@-=y=5ss=:p==&&q=,==&@5&5=&&=::=:=,-=q&@-,&@",
":@@@&==@:@X==3=:9==::&&y=:@:,&,&q=9&=@=3<@==&&-=@:",
"#@@:3$$:&&&@=q7&&:==&-&9$$@:@ -,7@,=@@$@&=&@:@==:@",
":,<@e5=,-=t===:=1et=,,=&=,-:&:@9@=@$@=X===&=s@=y=@",
":74X:@1y@@@@72e373==:yq=:q5,:,@=o:=:y=$3q-=&,&&::$",
"@ ==@==$::=@73e=93.=:@-=@=&&-,&-eq,@@@:$7:=&<.$:::",
",@@@@=y7:@y=@@$:=@o@:@=&5:&:$=@=:$:$=$@@hi@=p@,:=7",
"i@y@@:,@,&@@@@@@@@=@X@5X==&=:$:$@$y$@@@@=@..,=q,@2",
">:.&5=@&:,=@@q:qo:&@@X&=&@=@&& $=@@@@99q,:q&@:=&::",
"i9@=q9&&5&,=@9=eX:,@@=77u=q:&==e..9@$$=== =@.@==::",
"-@@=:o@@$::@@$$$$=:=:==&: = @&,&@.@@=@=&=@@o@,:=q-",
"997==@@$$@==:$@=====@5X,,@@@@@&&@=@:&@@p=q:$@9@X&=",
"9t7.q$@,@,7y@$=yy9,,=9@@&&$@&=@p=y=39:o=$9@.@@$@&:",
":&::$@@d..==3:=739,==$@@=:$@q&=:=X$:$@==:$$$$$$$@:",
">@@:,@@@@@=p991:=&:&=s:s=95,==&=9$@==:@=$@@@@pq=-=",
":@@:@@@@@@$$$$:e:q-,@,,7@5:.@$=@5@@79,@$=@&=.,:,y:",
",--=@@q=q9:y:@=2&7&==@=@==:..@:@@X.,97$$yy=e&X@&4$",
">@@&=&-=%$$@@$@@&==:@=@@X===:@@===@:$@@$3=,3@=X:e%",
"<:@@@@@.++@=$$@@=@=&yy7y-,9q=X@,,s=,y@@$@=:@$=@ @o",
"=::&@=@==:,3:$@@y@&:=37-,&&-=&@@=::=,@@=$=@=9,&@o@",
"s:p-7::g2y:7=:X.=&q===q$:====&=@&7=&:XXqe=:=q57,@@",
"9:::=@@3$=:@&@$@@=$@:@:@$4=@97&@=s=:=:$7,@@@:==@&X",
":@79@=$===&:X=@$-==,:@@@gs:@=e:====-::X==@@@@$@@==",
":=X@==,:=@@qX@@$9q&&s=@@=X@@=1@:-:,-=@,X&@@yy5=$=p",
":@X=&,pg@@@@$.@@===$&@@@&&==:==,,9=7.=yy,=&3&==@$:",
":3e9@::@=@@9eq3$@7=@=@75-q9==y-g,q:5=$==33:=q=@:$:",
"@29q@&o@@@@,9:=@=q::@@=@&:.$::@=$o:.:= ==X@X@$=:::",
"::=:&=@@@@@@$=@@@@@@@@@@,:=.=:@@$@7p,@@@,@@@@::=$1",
"X==@:=$$&@&,@@$$=@:2:@@==&$$@@@@@@@@@X @9,=y,Xy=$:",
"3:3y==$:d@==@=1:=@=9=:7q@@=7@@@=q@@@&3@@X@ 7==73@:",
"4@@:$e:==$==:7yg$7q$@:44==$=@:@@=-&5@,@@ @ewe@94$:",
",&:,:9:::=:@::=::@@.@p113:$::@=$,q:5@:::@:::,$,:@:"
};
