/* XPM */
static char *sprite_player_down1712252717[] = {
/* columns rows colors chars-per-pixel */
"50 50 201 2 ",
"   c #01000A",
".  c #272330",
"X  c #3C3339",
"o  c #4C2C1F",
"O  c #463A34",
"+  c #494044",
"@  c #6A584F",
"#  c #6F6364",
"$  c #7B6D63",
"%  c #9C5D3B",
"&  c #D87A37",
"*  c #D37A3A",
"=  c #E17E3B",
"-  c #825B45",
";  c #B17453",
":  c #A27F70",
">  c #CA7E44",
",  c #D27F40",
"<  c #76A72D",
"1  c #76AB2D",
"2  c #79AD2F",
"3  c #7EA631",
"4  c #7BAE31",
"5  c #7EB032",
"6  c #8E9B35",
"7  c #9C973C",
"8  c #AA8E3C",
"9  c #84A534",
"0  c #83AC34",
"q  c #89A539",
"w  c #84AB3A",
"e  c #8CAB3D",
"r  c #95A037",
"t  c #91A43D",
"y  c #83B234",
"u  c #89B537",
"i  c #85B339",
"p  c #8BB639",
"a  c #8EB83A",
"s  c #91BA3B",
"d  c #CD833D",
"f  c #E4833E",
"g  c #EB863F",
"h  c #BA8546",
"j  c #B78B41",
"k  c #A89746",
"l  c #B98E52",
"z  c #BB9655",
"x  c #8BAB41",
"c  c #94A642",
"v  c #9CAB45",
"b  c #94AA49",
"n  c #9DAA49",
"m  c #8BB448",
"M  c #8CB548",
"N  c #9EB345",
"B  c #94B64C",
"V  c #97B848",
"C  c #92B451",
"Z  c #99B358",
"A  c #AAA54D",
"S  c #A2AA4B",
"D  c #B0A84F",
"F  c #B2A453",
"G  c #B5886B",
"H  c #AB8D74",
"J  c #BBA463",
"K  c #A6BD66",
"L  c #A9B46B",
"P  c #A7BC6B",
"I  c #A8BB75",
"U  c #ADBB74",
"Y  c #B3BD74",
"T  c #B2BC7A",
"R  c #B8BF7F",
"E  c #CC844C",
"W  c #C78C4A",
"Q  c #D38244",
"!  c #DC8244",
"~  c #D8874B",
"^  c #DC864B",
"/  c #C3944A",
"(  c #C39A4D",
")  c #CE8655",
"_  c #C48D58",
"`  c #D68C54",
"'  c #DC8B53",
"]  c #DA8E5C",
"[  c #CB9F55",
"{  c #CE985D",
"}  c #D49255",
"|  c #DD9555",
" . c #DD955A",
".. c #D59A5B",
"X. c #E68644",
"o. c #EA8642",
"O. c #E58845",
"+. c #EB8944",
"@. c #E5864A",
"#. c #E98748",
"$. c #E48A4B",
"%. c #EC8D4B",
"&. c #F08D4B",
"*. c #E4914F",
"=. c #F0904E",
"-. c #E28D53",
";. c #E88E54",
":. c #E88F58",
">. c #E39153",
",. c #E4945B",
"<. c #EA9559",
"1. c #F19251",
"2. c #C2A55A",
"3. c #C99B67",
"4. c #D89A68",
"5. c #C99B7B",
"6. c #E39563",
"7. c #E49B64",
"8. c #E99A65",
"9. c #E29C6C",
"0. c #E29E74",
"q. c #C6A162",
"w. c #C6A06B",
"e. c #CBA56A",
"r. c #C8AE73",
"t. c #D4A672",
"y. c #DCA172",
"u. c #D6AA77",
"i. c #D4A37C",
"p. c #E6A777",
"a. c #E8A476",
"s. c #E4A57B",
"d. c #AEC273",
"f. c #8E8488",
"g. c #9A8A86",
"h. c #A3999C",
"j. c #B5A299",
"k. c #B7A7A4",
"l. c #D3A789",
"z. c #D8B48C",
"x. c #D9B092",
"c. c #EBAA83",
"v. c #E7AB89",
"b. c #EAB385",
"n. c #E4B38D",
"m. c #EAB38B",
"M. c #F2B68A",
"N. c #ECB592",
"B. c #E9B595",
"V. c #EEB994",
"C. c #E1B79F",
"Z. c #E5BC9D",
"A. c #EBBA9C",
"S. c #F2BB96",
"D. c #C4B1AC",
"F. c #E2BEA6",
"G. c #ECBFA2",
"H. c #C5C786",
"J. c #C3C593",
"K. c #C4CB93",
"L. c #CDC698",
"P. c #E9C29D",
"I. c #C9CEA0",
"U. c #D1CEA5",
"Y. c #DCCAA8",
"T. c #D9D4AE",
"R. c #DDCFB5",
"E. c #D8C4BB",
"W. c #EDC2A4",
"Q. c #E3C6AD",
"!. c #F2C3A4",
"~. c #F1C7AA",
"^. c #F2CAAC",
"/. c #E6C9B7",
"(. c #E7CEBC",
"). c #EFCDBA",
"_. c #F3CCB3",
"`. c #F5CCB8",
"'. c #E3D2B9",
"]. c #EFD3BE",
"[. c #E0D9BC",
"{. c #F6D1B6",
"}. c #F5D3BC",
"|. c #F9D2BA",
" X c #E3CBC1",
".X c #EECFC3",
"XX c #E5D0C2",
"oX c #EDD4C5",
"OX c #EDD5C9",
"+X c #EED8CC",
"@X c #F4D6C2",
"#X c #F9D7C3",
"$X c #F4D9C6",
"%X c #F9D9C2",
"&X c #F2D6CA",
"*X c #F9D6CB",
"=X c #F4DACC",
"-X c #F9D9CA",
";X c #EFDDD6",
":X c #F4DCD0",
">X c #F7E0CF",
/* pixels */
"5 4 4 5 5 4 5 5 5 5 5 5 5 5 5 1 5 2 5 5 2 2 4 4 4 4 2 2 4 4 4 5 5 4 4 4 5 4 2 5 4 < 2 4 5 2 5 5 4 5 ",
"4 2 2 5 4 2 2 2 2 y 5 2 1 5 u 5 1 1 2 5 2 2 y u 2 < 1 2 i 4 5 4 2 2 4 4 2 1 2 y 2 2 4 5 1 2 5 y 4 5 ",
"4 < i y 4 2 2 2 2 2 2 y 5 2 1 5 y 2 2 5 2 5 y 2 2 1 1 1 4 4 4 2 2 y u s 2 5 u 4 4 4 2 4 1 2 1 < 1 4 ",
"4 2 1 < 2 2 y i 2 5 1 2 5 1 5 y 5 2 1 2 5 4 t c 4 1 1 u 5 4 2 y 2 2 4 2 2 2 4 x w i 2 2 2 2 2 2 i 5 ",
"2 1 2 < 2 2 2 2 2 u 5 2 2 5 1 5 2 y 2 2 s s } ` k 3 1 p y 5 2 y 1 2 2 2 2 0 A { z q 2 y 2 4 2 2 5 4 ",
"4 s p 2 2 2 2 2 1 2 1 2 5 2 1 5 1 y 2 2 y z N.v.' 7 1 1 1 2 1 2 1 2 5 2 4 n  .$.' k 1 4 2 4 2 2 1 1 ",
"5 y 2 2 1 2 4 5 1 2 1 1 5 2 5 1 2 5 2 2 y e._.{.a.W r 2 2 u 2 y 2 1 u y N ..-.c.V.z 5 4 4 5 2 2 4 4 ",
"2 2 2 4 4 u y 2 u 1 1 1 5 y y 5 2 y 5 5 e t.|.%XC.' 8 9 1 2 2 1 1 2 4 y 2.,.a.`.{.3.w 0 0 u 2 y 5 2 ",
"4 2 4 5 2 5 2 2 1 2 1 1 1 1 1 2 5 2 2 2 t u.%X#X/.0.! 8 3 2 2 1 2 2 2 D <.7.F.*X}.i.t 2 5 2 2 2 2 2 ",
"4 5 4 5 2 2 2 2 a y 2 1 1 1 y 5 u 2 2 y e u.%X%XG.v.-.! 7 3 y B M 5 S <.>.p.G.|.}.3.N 2 2 y 2 2 4 5 ",
"y 2 4 1 2 2 2 2 2 1 1 2 2 5 5 5 y 2 2 4 e u.}.%Xc.6.;.X.^ / r.'.Q.J | 1.O.*.y.|._.z 0 2 5 2 2 2 2 5 ",
"5 5 5 2 2 2 5 5 2 1 2 2 5 2 1 1 2 1 1 1 e t._.^.a.#.= X.X.X.6.].@Xp.@.X.X.:.N.%XW.l 0 5 y 2 2 y 2 5 ",
"i y u 2 2 a y u 5 1 y 2 1 1 1 a 2 < 2 2 4 3.W.}.c.X.o.o.g g -.~.%XM.$.X.= ' B.*Xn.k y 2 p 2 5 y 2 5 ",
"4 2 1 2 4 2 2 2 5 2 2 1 1 1 1 1 2 1 u y y q.B.}.s.#.o.o.o.X.$.P.=X!.-.X.#.@.v.@X4.6 1 1 2 1 2 2 2 5 ",
"4 2 2 2 5 2 2 y 5 y 1 5 2 1 1 2 2 2 2 2 4 F p.b.' o.g X.$.7.,.S.-X_.a.c.:.X.~ n.l 3 1 1 1 1 1 2 2 2 ",
"4 2 1 1 1 2 2 y 2 y 5 2 2 2 5 y y 1 1 y 2 n 7.,.@.o.o.o.,.v.9.S.#X|.l.l.6.$.X.Q 7 4 5 2 5 2 1 2 5 5 ",
"2 y y 2 1 1 2 2 5 2 2 2 5 1 2 5 5 2 < y 2 w 4.=.O.+.o.o.6.G ; G.%X}.x.H % ' X., q y y y y 1 1 2 5 1 ",
"2 2 u 2 2 5 2 2 1 2 1 5 5 5 1 1 2 2 2 2 2 V Y.p.*.O.O.@.i.O - _.+X&XF.$ o ~ @.] x 4 2 4 2 1 2 2 2 1 ",
"5 2 1 1 1 u 1 5 2 u 2 5 p a 1 5 p 2 2 2 2 d.:X&X^.7.$.-.l.@ 5.F.g.# g.k.: ' 0._.T 5 4 u 2 1 2 y 1 1 ",
"2 1 1 1 2 2 2 1 2 2 1 1 5 5 5 5 5 5 2 2 5 K.:X=X-X{.p.' i.C.XXE.X   + F.F.B.#X*XL.2 2 2 1 2 2 2 2 2 ",
"2 1 2 2 5 2 2 1 2 2 2 2 2 u y 2 2 5 2 2 5 T.:X=X=X&X@X~./..XOX;Xf.. h.OX(.=X=X=XU.4 1 2 4 1 4 2 2 2 ",
"2 5 y 2 y 5 2 y 2 2 u 2 2 2 2 2 5 y u 5 5 T.}.=X=X=X=X=X=XOXk.D.k.g.k.j.E.=X=X=XR.m 2 2 a 2 2 u 4 1 ",
"2 5 5 1 5 2 5 u 2 1 2 1 y 2 y 5 5 5 2 2 2 r.F.=X=X=X=X=X=X=X.XE. X+X X.X-X=X=X=XU.y 4 2 5 1 1 4 2 2 ",
"2 1 1 1 2 2 2 2 2 2 2 1 y 5 u 5 y 5 1 2 p 3.W.#X=X=X=X:X=X=X:X*X=X=X:X=X:X=X:XOXP 2 2 1 2 1 2 2 4 2 ",
"5 2 2 < 1 2 p y 2 2 p 2 2 1 1 5 2 1 1 5 A ` b.B.}.;X=X=X=X:X=X=X=X=X=X=X=X=X&XJ.V u 1 1 p 2 2 2 5 5 ",
"u 2 u 1 2 2 5 1 2 1 1 1 2 1 1 1 2 2 4 n } O.| 7.}.=X=X:X=X=X=X=X=X=X=X=X=X=XR.C 2 1 1 < 2 2 u 5 2 5 ",
"4 2 1 1 5 5 1 1 1 5 2 2 1 y 5 y 1 4 v ..O.X.#.,.}.=X=X=X=X=X=X=X=X=X=X=X=X=XE.B 5 5 y 2 2 2 2 4 2 5 ",
"i y 2 2 y y 1 1 y 2 5 2 1 y 2 u 4 F >.#.g o.X.$.P.@X=X=X=X:X&X&X=X=X&X&X+X=XR.B 2 1 2 1 < 2 2 2 4 4 ",
"y 1 1 1 2 1 1 1 2 2 2 1 2 2 2 e [ *.@.o.o.o.o.o.>.m.-X-X=X:X=X.X&X=XoX&X=X=XXXZ 1 2 1 1 2 4 4 4 i 5 ",
"y y y 1 5 1 1 1 2 1 2 5 2 3 S ..@.O.o.o.o.o.g o.o.,.{.-X=X=X=X=X&X&X&XOX=X=X@Xd.5 y 2 1 2 5 1 1 2 2 ",
"y u y 1 y 2 1 5 1 2 y p 2 S ,.O.o.g g o.o.g f f @.X.m.=X=X:X=X=X=XoXOX=X=X=XOXT 5 y 1 1 1 1 1 1 1 2 ",
"2 1 5 2 1 1 1 a < < 2 2 v ..X.o.o.o.o.o.o.+.= = #.X.6.`.=X=X=X=X=XoX=X=X=X=X+XT 5 2 1 1 1 2 1 2 2 2 ",
"5 2 < 2 4 1 1 1 1 2 1 M [ #.#.o.o.o.o.o.g &.&.= g o.+.b.:X=X$X=X=X=X=X=X=X=XoXY 4 1 < 1 < p y 2 5 5 ",
"4 2 2 2 1 1 1 2 1 1 4 S -.o.o.o.o.o.o.o.g g &.1.= o.X.:.^.^.m.&X$X=X=X=X=X=X).L 0 1 2 2 1 2 2 5 y 2 ",
"4 5 5 2 1 1 y 4 u y 0 2.$.o.g o.o.o.o.+.o.o.o.1.o.f X.X.7.8.:.`.=X=X=X=X=X$XZ.b u u 4 u 2 1 2 2 5 4 ",
"5 1 1 1 2 2 4 2 2 1 0 ( O.O.g o.o.g o.o.o.o.o.&.%.f o.+.O.@.%.S.=X=X=X=X$X_.y.b y 2 4 y 1 2 1 2 y 1 ",
"5 2 2 1 1 2 1 1 2 1 0 z #.o.g o.o.o.o.o.o.o.o.%.=.f o.g o.o.@.M.%X=X$X).|.s...w 1 5 5 1 1 1 1 1 1 1 ",
"2 2 2 2 1 2 2 i c r 7 ~ o.o.o.o.o.o.o.o.o.o.o.&.1.= o.g o.o.;.M.=X@Xm.n.c.>.( 4 2 1 1 5 y 5 1 1 1 2 ",
"M 2 a 5 y 2 2 V w.E * f o.g o.o.o.o.o.o.o.o.o.=.=.= f g g o.&.S.A.4.^ ,.$...x y u 2 2 2 u y y 2 1 1 ",
"y 2 5 2 2 2 2 y K Z.9.! O.o.+.o.o.o.g o.o.o.#.<.:.& f g o.#.8.W.) * f X.$.F 4 y 5 2 1 1 2 2 2 1 1 1 ",
"5 2 5 u 2 2 2 5 C [.^.4.$.O.o.g g g o.o.o.o.6.M.n.) & X.@.9.W.>X4.* f ,.m.H.m 1 1 2 1 1 1 1 1 1 2 2 ",
"2 1 1 1 2 2 2 5 i I.+X&XP./ , X.O.O.#.#.o.7.^.$X$Xv.* , p.{.=X:XZ.>  .~.@X$XK.4 2 1 2 u u y 2 1 2 m ",
"4 1 1 2 2 5 p s 4 m d.K.K 9 7 j d d Q d E z.).oX(.z.h _ F..XOXR.R k z.oXoXXXH.a 5 2 1 y 2 2 2 2 1 4 ",
"5 5 y y 2 2 2 2 2 2 1 5 i i 4 3 9 r 6 6 t Z U Y P C w b P Y I d.x p Z I U P M 2 5 5 2 2 u 2 2 2 1 4 ",
"2 5 y i 2 2 1 1 1 1 1 5 y 2 2 2 2 i 2 2 2 4 2 2 2 2 1 2 5 5 1 4 1 < 1 1 1 2 1 1 2 1 1 1 2 2 2 2 2 4 ",
"2 2 2 5 2 2 1 1 1 1 1 1 2 2 1 2 1 2 2 2 2 1 1 2 4 4 1 1 2 2 1 2 2 1 5 u 2 1 1 1 2 2 1 1 1 2 5 2 2 5 ",
"2 2 2 2 2 2 2 2 2 1 2 5 1 1 2 2 2 2 2 5 2 2 2 1 2 2 2 1 2 1 1 2 2 1 2 1 1 1 1 1 y 5 2 u 5 2 a 2 2 4 ",
"5 5 2 p 2 2 1 2 s 1 2 2 2 2 5 2 2 2 4 y 2 2 y y 1 1 4 5 2 1 1 2 y 1 2 1 1 y 1 1 1 1 1 5 1 1 y 5 1 4 ",
"5 2 2 4 2 i 2 5 5 2 2 2 2 5 i a 5 5 i 1 1 5 5 5 4 2 2 2 1 5 2 1 1 4 4 0 1 4 1 2 < 2 u y u 1 5 5 2 2 ",
"4 1 2 4 4 5 5 2 2 4 2 2 5 5 4 5 2 2 2 1 1 i 5 5 5 4 2 2 2 1 2 2 4 u 4 4 1 4 2 4 2 4 2 2 5 1 5 2 1 5 "
};
