/* XPM */
static char *sprite_collectibles1712252716[] = {
/* columns rows colors chars-per-pixel */
"50 50 55 1 ",
"  c #D96C1F",
". c #E3691C",
"X c #E9751C",
"o c #EC7D1C",
"O c #72A72A",
"+ c #76AB2D",
"@ c #79AD2F",
"# c #76B32D",
"$ c #7AB22E",
"% c #77BC2D",
"& c #79BA2F",
"* c #7BAE31",
"= c #7EB032",
"- c #76C32C",
"; c #7DC130",
": c #8C9E29",
"> c #AD8B25",
", c #A29728",
"< c #B69E25",
"1 c #83A327",
"2 c #89A62A",
"3 c #82A92C",
"4 c #88A92C",
"5 c #91A62B",
"6 c #9CA52A",
"7 c #99A82D",
"8 c #83B12B",
"9 c #82B92B",
"0 c #80AF31",
"q c #83B234",
"w c #89B537",
"e c #87B438",
"r c #8BB738",
"t c #8DB83A",
"y c #93B337",
"u c #91BA3C",
"i c #A8A026",
"p c #A7A52A",
"a c #A8A62B",
"s c #B2A329",
"d c #BDA62D",
"f c #DD811E",
"g c #EF841C",
"h c #E58A1E",
"j c #EB8B1D",
"k c #F0861C",
"l c #F28D1D",
"z c #E3941F",
"x c #EA921E",
"c c #F4901D",
"v c #C39D25",
"b c #CC9A23",
"n c #D49721",
"m c #DE9520",
"M c #D39822",
/* pixels */
"=*****==*=***=*******@****@@***=*******q*++***=**q",
"*@******@w****r*@@@=@@=r@O+*r***@@***@+q@@*=@+*q*=",
"*Oeq*@*@@@@qq@@***+*@=$=*@@O@**@@qwu@*e*****+@++@*",
"*@@O@@qq@*@@*@*q**+*=*@@@O+e**@q@@*@*+++*q+++**@e*",
"*+*+@@+*@r@@$@*@*0*+ut=w@++we*@q@@@*@@+@+++0**@+**",
"*ur+@@@@+@+@*@@@*q*+q*=q@*++@@+*++=@@@+@*++***++@@",
"*0*++***+@+@**=+*****q*@@qq+*q+0++r=u$=e**+**0+*@@",
"**+**eq*w+++@we=*0**=tr=+@*++**@+@$=*@=***+*0e*q**",
"***0@=$@++++@+@@=@@@***@+*=@@+@++@@$*@@*@@@*@*@@@*",
"****@@@@tq@++@q@w@@q@0ww@q=@@+=*r@@@0w$==*u@=q@@**",
"0**+@+*@@++@@@0$q@+@+++++++@t@@@@++*=wwe@@0@*@@@**",
"****@***@+@@*@++@@@+++++@@@@=@=&qww@=@$@@+*$q**q*=",
"e0e*@rqe*@q+@+@t@+@@++++@0+$@+%-$@$+@*0+@+q@t@0q@q",
"**@@**@*@@@@O+O+++qqq@@q++@=+#--&+$#w+t@e+++@++@**",
"*@@**@*q=q@q@@++@@@@@+@q+O+w$---;---@++++++O+++@@*",
"=*O+++@q@q@*@@qqq++q@+@@@@@+@------%@@+++*0$0@++**",
"+0q*+@@@@@@@$@@*q@+q+@++++@++------%@e@@$qwqq++@=*",
"*@w*+*@*@@@@=@@@+@@@+q*q+w@O$--------;qq@=@=@+*@@O",
"0*+O+w+0@r@qtt@@r@@@+w@**6<6q---------@@@$@e@+*0++",
"*+++@@@+@++@=*=*q@@@*++yncccM9------%#@q=@@@++@$@*",
"*O@*=@++@@@@@eq@@=@$@=4 kccccz8%%%%$@+@+@@+@@@@@**",
"**=@qq@q@@w@@@$@=qe@@0nk.lccccmq@@++@@++@@@@t+@r@O",
"*=*@@@=w++@+q@qq==@@@vcckXccccciO@*@w@@$wq@@=+@@**",
"*O@@@@@@=@@+q=w@q=@@scccclgccccvee*+@+@@q@@+@++@**",
"=@*O@*e0@@w@@+@*@+O5cccccclccccp*@@@@@@@uw++r+*@**",
"e@eO@@**@@+@@+++@@3zccccccccccm@++w@@OO+++++*+e***",
"**O@0*+++*@@+w+q+@bcccclllcccx1@@+@+@qqe**w++*****",
"e=*@q0*+q@*@+q@w+>occcccogccx7@eO+q@@+@@++++++@***",
"*+++*+++@@@++@@@4j.kcccclo.h2@0++++++@+@@++++***q*",
"eqq**+++@+@=@@+@nclXccccccf:++@+@@+@@@+w*q@+*=+++*",
"0r0+0*+*@*=r+@@acccckccccn3+@@+r@w@*q@+@@q++++*O+*",
"*@*+*++u+O@*8@@zccccccclv@@+w@@@+@@*@@@**++@O*+*+*",
"*@O**+++O*+rq=accccccccd@=q@@@@@q@+@@@@@@O+++rq@**",
"*@@**@+*++@@@@bcckcccx6q@q$O+@@+q++qq@@@@@@@+@3@e*",
"***@+Oq*e0*r*+zccgolb3@+@@@@++@@@++@qq+@wr$e@+@@**",
"*@O@@@**+++++@Mcccf,@@@@@@@@@@@@@@@@@+++=@@qO@@@q+",
"=**+O*+O+@@+@@@vvi@@wrqr=@qe@++@@r*0w++@@@=@@@O+++",
"****+*@*@@=0*+++r@@@@$q@@@@*@+++@$$@=@@+@@@@q=@@O*",
"t*e***@u*w*q*++O@@w@@@q@@@@@@+@@@q@@*++qe+@@eq=@++",
"=*=***+*@@*++++++@+@@@@+$=*@qq@+@u@@@*+q$+++@@@@++",
"*@qe@$@@@@@@+@+@$@@@@@+@ut*+*q**@@@@@@@+@@++++++@*",
"*+++@@@@@@+q++++qe@@u@++*O@@@*@*=*$=@@@@@@@wr0@@*e",
"@++@@0uu@@++++++@@@@++++@@=@=**=*q@q+$yr@@+q@@@@+*",
"*=qq@@++@@+qqw*@@=*+@+qq*q=*=q*t$e@q@@@@$q@@q@@@+*",
"**qe@@+++@+@q*@@@e@@@=*OO@O@**+*@O@+@@++++++@@@***",
"*@@*@@+++++++@+@+@@@@O@@==@+**++++0t@+++0++++@=@@*",
"*+*+@@@@+@@q@+@@@+**@@@@@@@+++++@+++++++q*@r*@t@@@",
"***r@@+@u+@@+@@@*+*q#@=q@O*q*+++w++++qO++++q++q$@@",
"**@*@q***@@@*=et*qq+O*==****+**++@+0+0+*O+eqq+q=*@",
"*@***=************+O*e*==*+**+*+@w*0+***+*******@*"
};
