/* XPM */
static char *_6b9dc3347e1492af315e10cfb0d52c8USxNWo9EhSAWuooN[] = {
/* columns rows colors chars-per-pixel */
"50 50 5 1 ",
"  c None",
". c black",
"X c #495900",
"o c #8A8A00",
"O c #FFA200",
/* pixels */
"   oooooXXX......oooooXXX......ooXXXXXXXXXXXXXX   ",
"   oooooXXX......oooooXXX......ooXXXXXXXXXXXXXX   ",
"   oooooXXX......oooooXXX......ooXXXXXXXXXXXXXX   ",
"   oooXXoooXXXooooooooooooooXXXXXXXXooooooXXooo   ",
"   oooXXoooXXXooooooooooooooXXXXXXXXooooooXXooo   ",
"   oooXXoooXXXooooooooooooooXXXXXXXXooooooXXooo   ",
"   oooooXXXooooooooooooooXXXXXXoooooXXXXXXXXooo   ",
"   oooooXXXooooooooooooooXXXXXXoooooXXXXXXXXooo   ",
"   oooXXXXXXXXXXXXXXXXXXXXXXoooooXXXoooXXXXXooo   ",
"   oooXXXXXXXXXXXXXXXXXXXXXXoooooXXXoooXXXXXooo   ",
"   oooXXXXXXXXXXXXXXXXXXXXXXoooooXXXoooXXXXXooo   ",
"   XXXXXXXXXXXXXXXXXXXXXXXXXoooXXoooXXXXXXXXXXX   ",
"   XXXXXXXXXXXXXXXXXXXXXXXXXoooXXoooXXXXXXXXXXX   ",
"   XXXXXXXXXXXXXXXXXXXXXXXXXoooXXoooXXXXXXXXXXX   ",
"   XXXXXXXXooooooXXXXXXXXXXXooooooooXXXXXXooooo   ",
"   XXXXXXXXooooooXXXXXXXXXXXooooooooXXXXXXooooo   ",
"   XXXXXXXXooooooXXXXXXXXXXXooooooooXXXXXXooooo   ",
"   oooXXoooOOOOOOooXXXXXXXXXXXXXXXXXXXXoooXXooo   ",
"   oooXXoooOOOOOOooXXXXXXXXXXXXXXXXXXXXoooXXooo   ",
"   oooXXoooOOOOOOooXXXoooooooooooXXXXXXoooooXXX   ",
"   oooXXoooOOOOOOooXXXoooooooooooXXXXXXoooooXXX   ",
"   oooXXoooOOOOOOooXXXoooooooooooXXXXXXoooooXXX   ",
"   oooXX...oooooo..ooooooXXXoooXXXXXXXXXXXooooo   ",
"   oooXX...oooooo..ooooooXXXoooXXXXXXXXXXXooooo   ",
"   oooXX...oooooo..ooooooXXXoooXXXXXXXXXXXooooo   ",
"   oooXXXXX......XXoooXXXooooooXXXXXXXXXXXXXooo   ",
"   oooXXXXX......XXoooXXXooooooXXXXXXXXXXXXXooo   ",
"   oooXXXXX......XXoooXXXooooooXXXXXXXXXXXXXooo   ",
"   XXXXXXXXXXXXXXXXXXXooooooXXXoooooXXXXXXXXXXX   ",
"   XXXXXXXXXXXXXXXXXXXooooooXXXoooooXXXXXXXXXXX   ",
"   XXXXXXXXXXXXXXXXXXXooooooXXXoooooXXXXXXXXXXX   ",
"   XXXXXXXXXXXoooXXXXXXXXXXXoooOOOOOoooXXXXXooo   ",
"   XXXXXXXXXXXoooXXXXXXXXXXXoooOOOOOoooXXXXXooo   ",
"   oooXXXXXoooXXXooXXXXXXXXXoooOOOOOoooXXXooXXX   ",
"   oooXXXXXoooXXXooXXXXXXXXXoooOOOOOoooXXXooXXX   ",
"   oooXXXXXoooXXXooXXXXXXXXXoooOOOOOoooXXXooXXX   ",
"   oooXXoooXXXoooooXXXXXXXXX...ooooo...XXXooooo   ",
"   oooXXoooXXXoooooXXXXXXXXX...ooooo...XXXooooo   ",
"   oooXXoooXXXoooooXXXXXXXXX...ooooo...XXXooooo   ",
"   XXXXXoooooooooXXXXXXXXXXXXXX.....XXXXXXooXXX   ",
"   XXXXXoooooooooXXXXXXXXXXXXXX.....XXXXXXooXXX   ",
"   XXXXXoooooooooXXXXXXXXXXXXXX.....XXXXXXooXXX   ",
"   XXXXXXXXXXXXXXXXooooooXXXXXXoooooooooooXXXXX   ",
"   XXXXXXXXXXXXXXXXooooooXXXXXXoooooooooooXXXXX   ",
"   oooooXXXoooXXXoooooXXXoooXXXXXooooooXXXooXXX   ",
"   oooooXXXoooXXXoooooXXXoooXXXXXooooooXXXooXXX   ",
"   oooooXXXoooXXXoooooXXXoooXXXXXooooooXXXooXXX   ",
"                                                  ",
"                                                  ",
"                                                  "
};
