/* XPM */
static char *_5aebc680bfa42bfc9dadbaaecbcce02Ba0qpwR39Oeyf8vW[] = {
/* columns rows colors chars-per-pixel */
"50 50 5 1 ",
"  c black",
". c #495900",
"X c #794100",
"o c #C37100",
"O c #8A8A00",
/* pixels */
"...................OOO............................",
"...................OOO............................",
"...................OOO............................",
"...OOO.....OOO...OOOOO...OOO........OOO...OO......",
"...OOO.....OOO...OOOOO...OOO........OOO...OO......",
"...OOO.....OOO...OOOOO...OOO........OOO...OO......",
"...OOO..OOO......              .....OOOOOO..OOO...",
"...OOO..OOO......              .....OOOOOO..OOO...",
"...OOOOO...........OOOOOOOOO...  ...........OOO...",
"...OOOOO...........OOOOOOOOO...  ...........OOO...",
"...OOOOO...........OOOOOOOOO...  ...........OOO...",
"...OOO........   ..OOOOOO......     ........OOO...",
"...OOO........   ..OOOOOO......     ........OOO...",
"...OOO........   ..OOOOOO......     ........OOO...",
"......OO...        OOO...           ..............",
"......OO...        OOO...           ..............",
"......OO...        OOO...           ..............",
"...........   ...OO...OOO........      ...OOOOO...",
"...........   ...OO...OOO........      ...OOOOO...",
"...OOO..      ...OOOOO.........        .....OOOOOO",
"...OOO..      ...OOOOO.........        .....OOOOOO",
"...OOO..      ...OOOOO.........        .....OOOOOO",
"........   ...OOOOOOOOOOOOOO........   ........OOO",
"........   ...OOOOOOOOOOOOOO........   ........OOO",
"........   ...OOOOOOOOOOOOOO........   ........OOO",
"......  .........OOOOO...                 ..OOOOOO",
"......  .........OOOOO...                 ..OOOOOO",
"......  .........OOOOO...                 ..OOOOOO",
"......  OOOOOOOOOOO...OOO...........      ..OOOOOO",
"......  OOOOOOOOOOO...OOO...........      ..OOOOOO",
"......  OOOOOOOOOOO...OOO...........      ..OOOOOO",
"...   .....OOO...OOOOOOOOOOOOOO..         ........",
"...   .....OOO...OOOOOOOOOOOOOO..         ........",
"......  OOOOOOOOO.....              ...   ..OOO...",
"......  OOOOOOOOO.....              ...   ..OOO...",
"......  OOOOOOOOO.....              ...   ..OOO...",
"......     ........OOOOOO...........      .....OOO",
"......     ........OOOOOO...........      .....OOO",
"......     ........OOOOOO...........      .....OOO",
"...........        .........           .....OOOOOO",
"...........        .........           .....OOOOOO",
"...........        .........           .....OOOOOO",
"........      XXX              XX      ...OO......",
"........      XXX              XX      ...OO......",
"........   XXXoooXX      XXXXXX     ...OOO........",
"........   XXXoooXX      XXXXXX     ...OOO........",
"........   XXXoooXX      XXXXXX     ...OOO........",
"...OOOOO...           ...        ..............OOO",
"...OOOOO...           ...        ..............OOO",
"...OOOOO...           ...        ..............OOO"
};
