/* XPM */
static char *sprite_exit1712252716[] = {
/* columns rows colors chars-per-pixel */
"50 50 193 2 ",
"   c #477338",
".  c #7E7527",
"X  c #19774B",
"o  c #1B7A4D",
"O  c #1B7C52",
"+  c #FD3331",
"@  c #F73932",
"#  c #8C5D24",
"$  c #876625",
"%  c #8B6526",
"&  c #836D25",
"*  c #946028",
"=  c #9D662D",
"-  c #9B6B2B",
";  c #807426",
":  c #96702C",
">  c #9B742E",
",  c #9D7530",
"<  c #9C7B31",
"1  c #A16C2F",
"2  c #A4702F",
"3  c #A36C30",
"4  c #B66D33",
"5  c #AD7435",
"6  c #A47D31",
"7  c #B17534",
"8  c #B87233",
"9  c #BC7C37",
"0  c #BF743F",
"q  c #B57939",
"w  c #BB7E3A",
"e  c #CB4B2C",
"r  c #CD562F",
"t  c #ED4734",
"y  c #F14334",
"u  c #E95338",
"i  c #C36832",
"p  c #DD653C",
"a  c #C0723F",
"s  c #CB773C",
"d  c #BF7941",
"f  c #C27540",
"g  c #C57942",
"h  c #C97D44",
"j  c #D47641",
"k  c #3C8A3E",
"l  c #438E3D",
"z  c #46903D",
"x  c #5A9B38",
"c  c #7E8E2A",
"v  c #7D922B",
"b  c #78A72D",
"n  c #76AB2D",
"m  c #79AD2F",
"M  c #65A135",
"N  c #69A436",
"B  c #73AA35",
"V  c #7BAE31",
"C  c #7EB032",
"Z  c #1F8156",
"A  c #2C8145",
"S  c #2A834B",
"D  c #338643",
"F  c #398944",
"G  c #358949",
"H  c #418F40",
"J  c #8C872D",
"K  c #96922E",
"L  c #98922E",
"P  c #8F8D32",
"I  c #988733",
"U  c #8C9B32",
"Y  c #989934",
"T  c #A88637",
"R  c #AD8637",
"E  c #A68D39",
"W  c #B5813C",
"Q  c #BF813C",
"!  c #B4903E",
"~  c #87A531",
"^  c #83AE32",
"/  c #97AA38",
"(  c #83B234",
")  c #89B537",
"_  c #87B438",
"`  c #8BB639",
"'  c #8DB83A",
"]  c #96B43A",
"[  c #9AB43A",
"{  c #91BA3C",
"}  c #A1B33C",
"|  c #AEB53F",
" . c #C2833D",
".. c #9CB644",
"X. c #96B74A",
"o. c #A9B945",
"O. c #BCB644",
"+. c #B3B846",
"@. c #B9B749",
"#. c #BDBF55",
"$. c #B3BF5A",
"%. c #BDBF59",
"&. c #C58641",
"*. c #CC8245",
"=. c #C78844",
"-. c #C98A46",
";. c #CB8248",
":. c #CB8E4B",
">. c #D08646",
",. c #D18947",
"<. c #D48C48",
"1. c #D3924B",
"2. c #DB974C",
"3. c #DB9B4C",
"4. c #D79451",
"5. c #E09D4D",
"6. c #DCA74D",
"7. c #DCAE4E",
"8. c #C0B745",
"9. c #C3B947",
"0. c #C7BA48",
"q. c #CBBB4A",
"w. c #DDB44E",
"e. c #D3BC4C",
"r. c #DBBD4E",
"t. c #DEAE55",
"y. c #C3BD54",
"u. c #E1B14F",
"i. c #E4A857",
"p. c #E4AD55",
"a. c #EAAD53",
"s. c #E9AE5B",
"d. c #E5B551",
"f. c #EDB255",
"g. c #E6BD53",
"h. c #EDBD54",
"j. c #ECB35C",
"k. c #E8B75E",
"l. c #F1B455",
"z. c #F3BC56",
"x. c #F2B659",
"c. c #F4BC5C",
"v. c #F9BF59",
"b. c #E2AE66",
"n. c #E6B667",
"m. c #ECB463",
"M. c #ECB964",
"N. c #EDBB6A",
"B. c #F3BC63",
"V. c #F2BD6B",
"C. c #EDBC73",
"Z. c #B8C364",
"A. c #C4C25F",
"S. c #D1C154",
"D. c #D8C259",
"F. c #EDC055",
"G. c #EAC35E",
"H. c #F4C157",
"J. c #F6C259",
"K. c #FBC35A",
"L. c #CFC465",
"P. c #D6C564",
"I. c #EAC665",
"U. c #E7C36D",
"Y. c #EDC769",
"T. c #ECC96D",
"R. c #F5C564",
"E. c #FBC663",
"W. c #F4C867",
"Q. c #FCC867",
"!. c #F6C46B",
"~. c #F9C66A",
"^. c #F5C96D",
"/. c #FBC96C",
"(. c #EAC573",
"). c #EBCC74",
"_. c #EDCE7B",
"`. c #F2C373",
"'. c #F4CB73",
"]. c #FBCC73",
"[. c #F5CF7A",
"{. c #FBCE7A",
"}. c #FBD07E",
"|. c #F3C988",
" X c #EED48A",
".X c #F4D284",
"XX c #FBD283",
"oX c #F5D58B",
"OX c #FBD48B",
"+X c #EFD690",
"@X c #F7D795",
"#X c #FCD790",
"$X c #FED894",
/* pixels */
"C V V V C V V C V C C M O F N m V x G M C m V V V C m m C V V C m C m C C C m ( m n n V m C C C C C ",
"V n V V V V V V m ( V V D Z X M l O F ^ m m C ) n n n m ) m C C m m m m m n m ( m m C C n m C C C C ",
"V n _ ( C n B m m V A A l l G k X F m ^ m m m C V n n m m C m m m ) ) { m C ( m V C m V m m n n n C ",
"V n n b m n _ _ m V z Z O o x F l M n m C C m V m n n ( C C m C m m m C m m m m m C m m m m m n ( C ",
"V n V n m n n m V ` V M H G k l z S D m { ' C ) m n n ` ( C m ( n m m m n m m m n n n C m C m m C V ",
"V { ` & % % $ J n n n V & & .   x N A D ( C m ( m m n n m m n m n m C m m m n m m m m m m m m m n n ",
"U / U - = = - > < , , 1 3 3 5 7 W  .3 B V C C V m ( ( n m ` m V n n ' C { C C ) m V m m C C m m C n ",
"6 a s  . .&.&.&.&.&.&.&.&. . .&. .&.> m V ' ' C m m m m m m m n n m m m C m C C V m m C C ) m ( C C ",
"<  . . . . . . . . .=.&. . . . . . .% m m C m n n m V n n n V n m m m m m m m m m m m m C m m m n m ",
"T  . . . . .=.-.=.u p s y j &. . . .% ^ m ( ) ) m ( ( m m n C C ) m m m m ) m m C C { m C ( m m C C ",
"6 7 9 w  .9 Q Q  .y + y @ 4 7 q 7  .Q K n n n n m m n m ' m m m ( n m m ( ' ' ) n m C m m m m m m V ",
"( T w  . .&.&.-.=.j + + p &. .&. . . .K n n n n n m n m ( n C m ( ( ) m m m m m m n C C ( m m ^ C C ",
"_ ! &.&.&.-.&.&. .s + + *.=.:.:.-.w 1 J n n n n m ^ m m n n n m m m m n m m ( m m n ( m ) m C ( m C ",
"V R Q  . .-.:.:.:.u + + p  . . . . . .L ( m m ( n n n C n m C m C m m n ) n ) m ) n n n m n m m C V ",
"> 5 5 7 Q  . . .s + u t y &.&.-.=.9 =.L n m m ( n n n ) C m m n ( m m m m n n n n n n n m n n m m m ",
", &.&.&.&. .w q i e 4 i r 8 9 9 9 Q s / m m m n m n m n m m n n m m m ) m m n n n m C m ^ n n m C m ",
"J &.&.&.&.&. . .&.&.&. . .&.w w 7 5 - ~ n n m n n n m n n n m n m m m m m ( m m C ( ( ( ( n m m ( n ",
"P  . . . . .&.-.&. .&.=.=.-.&.&.=. .1 n m ( V ( V ( n n m n ( m ` ( ( m m ( C ( m C m ( n n m m n n ",
"Y &. .Q w q 5 R E E I I < * * * - 2 : m m ( m C C m m m ( n ( m m n m m V m C C C C m ( m n C ^ n n ",
"V b n n $ # # c V n n m V . & ; v C V m V m n ) m C m m m m ^ m ` m ( m m m m C C m m m n n m m m B ",
"B n V V C m m m V n m m V ( ( V ) [ o.O.q.r.g.F.h.h.Y.H.h.H.z.G.I.r.r.0.| ^ V n n n n n C n C m V m ",
"V V ^ n _ V m V V C [ [ @.e.g.H.J.v.R.!.x.a.j.j.m.j.`.M.x.j.f.n.a.a.d.l.z.H.G.y.} ( n n { n m ) m m ",
"V C ( n V m ( | q.r.F.x.a.b.f.a.a.s.V.V.@X{.^.~.E.E.].K.Q.Q.}.XX{./.!.V.s.p.k.d.F.7.8.] ^ n n m m m ",
"n n n n V +.T.].v.d.a.x.v.B.|.].].Q.K.K.].c.K.K.K.R.E.J.J.K.{.K.K.J.K.Q.{.XXT.p.6.6.u.F.q.^ n C V m ",
"C n V ~ r.K.K.a.V.Q.].].{.Q.B.].K.K.v.K.K.`.K.K.v.N.K.K.K.K.{.J.J.J.K.K./.K.K.V.{.'.c.6.W.T.o.m C C ",
"_ V [ g.K.l.l.].{.$XE.K.K.K.K.{.K.K.K.].{.OX!.{.].|.{.{.{.{.OX{.{.{.{./.{.K.v.K.K.E.'.'.s.J.W...n C ",
"B V P.{.V.v.{.E.K.Q./.K.K.K.Q.{.OX{.].Q.E.{.c.K.l.{.K.v.K.K./.K.K.K.K.^.OX}.}.}.K.J.].'.!.d.h.F.V C ",
"_ o.E.v.V.$XK.K.K.K.{.].{.].Q.E.{.K.K.K.v.K.{.K.f.].E.K.K.K./.K.H.H.H.Q.K.K.K.Q.{.'.'.J.~.m.J.z.} V ",
"^ 8.v.c.].E.XXK./.{.XX/.K.K.v.K.{.K.K.K.K.v.{.K.z.Q.].K.K.K.].K.K.c.x.Q.K.K.K.K.K..X{.E.K.x.B.B.S.C ",
"( q.v.l.K.K.].OXQ.K.K.XXK.E.x./.].XX].{.{.{.OXXXV.'.OX].{.].OX].'.n.].#X/./.Q.K.K.{.K.{.].a.B.^._.V ",
"^ S.K.a.K././.].Q.K.Q.XXXX].c.v.K.}.K.K.K.K.XXK.x.K.XXK.K.J.^.H.w.g.h.{.K.K.E.{.{./.K.K./.n.K.K.'.V ",
"B L.Q.V.K.K.K.K.XX{.Q.K.XXK.K.l.J.].K.K.K.K.OX/.B.{.$X].].'.XX^.M.R.J.[.K.K.J.K.XX~.I.K.l.m.K.J.{.( ",
"C A.OXE.a.K.K./.].{.J.K.].E.K.l.v.!.OX{.{.].OX!.a.x.C.f.f.l.Y.c.B.E.'.OX'.W.J.J.^.K.J.j.w.J.].E./.^ ",
"B Z.{.K.v.x./.E.K.}.J.K.K.}./.].V.B.n.2.<.h h ;.h f f g g g h f h >.4.m.c.~.'.[.E.v.j.x.F.K.K.OXE.V ",
"V $.K.{.K.x.k.J.K.E.^.~.].XXf.3.h g f f f f f f d d h f g 0 h g f a f f h ,.2.N.f.x.E.}.H.J.R.^.^.V ",
"C ..J.H.{./.H.j.a.v.XXc.5.;.f f f f f f f g f f a f f f g a g h g a f h *.i.s.h.J.h.h.E.'./.].K.(.n ",
"C X.R.H.K.E.#XQ.K.f.p.2.>.h f f g s f f d f g g f f a f f g g 0 g h f 5.K.K.].J.F.H.J.Q.@XW.J.J.L.n ",
"n m Y.'.K.K././.{.Q.K.J./.Q.i.;.a a f f d s g g f g f a a f *.0 s h <.K.K.K.XX/.].T.]./.XXJ.K.^.Z.n ",
"' V S.J.].Q.].K.K.Q.].{.OX].Q.K.<.g h h g g f a f g f f g f f a f f m.].{./.OXE.H.F.K.K..XW.'.^.X.n ",
"C C X.H.K.E.OX].K.K.K.K.XXK.E.K.v.h h >.>.h *.g g g g h j f 0 h ;.h c.K.J.K.{.K.K.F.K.^.+XR.H._.V n ",
"m m ( q.J.K.K.{.^.I.].{.OXE.K.K.K.s.g g &.h &.g g g s g *.g h a g b.E.R.~.].OX{.].'.^.'.^.F.J.%.m m ",
"m m n ( I.K.K.].K.H.J.J.OX/.].}.}..Xj.4.h g g h ;.h h h h *.-.1.t.'.W.R.E.E.].K.K.H.K.Q.E.G.[._ m ` ",
"V n m m } W.^.OXE.K.K.J.].K.J.J.K.{.R./.!.j.C.V.B.c.v.E.].v.K.J.H./.E.v.K.K.m.K.J.Q.{.OXT.Y.o.m m V ",
"V ( ( ( m @.E.R..X^.^./.XX/.E.K.E.}.E.Q.!.~..X^./././.{.OX/.^.'.'..X{.{.'.N.OXXX{.^.K.T.H.S.n m m V ",
"n V ( _ m m %.^.[.h.h.H.J.OX^.Y.].}.].]./.Q.XXQ.E.K.K.E.].K.J.J.J.^.J.g.w.z.}.J.K.H.J.oXP.C B C m V ",
"V V m m m V n ] (.[.U.g.F.T.H.H.K.E.Q.K.K.K.].K.K.K.K.E.].K.K.K.K.{.R.m.^.].oX'.'.^..X$.C m V V m C ",
"V m V n V m m m m ..+.D.n.).).T.T.^.$X/.^.'.[.'.^.^.].].OX'.^.'.'. XM.Y.G.}.J.z.F.0.) ) V m ) V V B ",
"C m V ` m m n m ' m V C C ] o.} | O.#.9.0.e.D.D.e.r.D.D.D.q.q.0.e.L.9.9.0.#.} ) m n n C m m ( C n V ",
"C m n V V ( V V V n m m C ( ) ' V ( ( n n V C C V m m V n V m m m C m C n V n n n n ) ( _ n ( C m m ",
"V n V V V ( V V V V V B m V V C m m m n n _ C C C V m B m m m m V ( V C n V V V n V V V V m V V n V "
};
