/* XPM */
static char *a0d12c6bde5840e4d28c0e66b35cb8dbrCTSATAezFgYIHVz[] = {
/* columns rows colors chars-per-pixel */
"50 50 187 2 ",
"   c None",
".  c black",
"X  c #141B1B",
"o  c #1B1E1F",
"O  c #1C1E21",
"+  c #182524",
"@  c #1B2B2A",
"#  c #1F262B",
"$  c #1F2832",
"%  c #252224",
"&  c #2D252A",
"*  c #34282D",
"=  c #342E26",
"-  c #20392B",
";  c #363027",
":  c #3D352A",
">  c #363028",
",  c #242B36",
"<  c #3C2A32",
"1  c #243833",
"2  c #3C3E38",
"3  c #4A3D2F",
"4  c #453A2C",
"5  c #432D37",
"6  c #442D39",
"7  c #4E3E31",
"8  c #4C313D",
"9  c #52333F",
"0  c #5B3C3F",
"q  c #25413E",
"w  c #495900",
"e  c #544433",
"r  c #5E4936",
"t  c #574A39",
"y  c #654D38",
"u  c #624C37",
"i  c #69503A",
"p  c #74573E",
"a  c #362E40",
"s  c #2C3443",
"d  c #2D344C",
"f  c #343D5C",
"g  c #313847",
"h  c #563540",
"j  c #593642",
"k  c #5E3A42",
"l  c #593F4C",
"z  c #543844",
"x  c #453D50",
"c  c #623A42",
"v  c #6D3F4A",
"b  c #693F47",
"n  c #2E4E47",
"m  c #364F4C",
"M  c #3A4157",
"N  c #3A5752",
"B  c #336844",
"V  c #396F4E",
"C  c #3D7D4F",
"Z  c #3C7252",
"A  c #3C4463",
"S  c #3E476F",
"D  c #3F4871",
"F  c #524047",
"G  c #5D564B",
"H  c #4D4654",
"J  c #514D5F",
"K  c #6F414A",
"L  c #624940",
"P  c #73424B",
"I  c #79454D",
"U  c #744B48",
"Y  c #695244",
"T  c #765640",
"R  c #634E5E",
"E  c #7D4550",
"W  c #775E50",
"Q  c #4C6C50",
"!  c #5F6955",
"~  c #437B51",
"^  c #457A5F",
"/  c #497856",
"(  c #5E7854",
")  c #547754",
"_  c #45654E",
"`  c #607954",
"'  c #767658",
"]  c #4E546C",
"[  c #5C566C",
"{  c #565368",
"}  c #404973",
"|  c #4B547B",
" . c #505774",
".. c #675E71",
"X. c #645566",
"o. c #526B76",
"O. c #60657D",
"+. c #804B4D",
"@. c #8D5D4F",
"#. c #905C4C",
"$. c #8C4D55",
"%. c #834852",
"&. c #8C5352",
"*. c #9C5957",
"=. c #856143",
"-. c #966C4A",
";. c #9C704D",
":. c #8E6C5C",
">. c #9C6F5D",
",. c #956854",
"<. c #9A765D",
"1. c #A96758",
"2. c #AE7B53",
"3. c #AB7655",
"4. c #B57B5B",
"5. c #9C6F60",
"6. c #95746A",
"7. c #856E72",
"8. c #937778",
"9. c #BD6A62",
"0. c #AA7960",
"q. c #A37F74",
"w. c #CC7A65",
"e. c #C87564",
"r. c #608456",
"t. c #76885A",
"y. c #758863",
"u. c #8A8A00",
"i. c #B78056",
"p. c #BF815E",
"a. c #B88257",
"s. c #939066",
"d. c #85837E",
"f. c #B3836D",
"g. c #B48568",
"h. c #A39062",
"j. c #A08C7B",
"k. c #B99466",
"l. c #C38A5C",
"z. c #C4895B",
"x. c #C4876A",
"c. c #D58367",
"v. c #D68A68",
"b. c #C79165",
"n. c #D59461",
"m. c #DD9768",
"M. c #D49F75",
"N. c #E5946B",
"B. c #EC9A6C",
"V. c #E09867",
"C. c #E29F70",
"Z. c #CEA06C",
"A. c #EDA56C",
"S. c #F3A46D",
"D. c #FBAA6F",
"F. c #F8A76F",
"G. c #EDA875",
"H. c #EDA978",
"J. c #FFAE70",
"K. c #F4A870",
"L. c #FEB57B",
"P. c #FBB37A",
"I. c #4E5680",
"U. c #5C6486",
"Y. c #5A7382",
"T. c #7C7084",
"R. c #616892",
"E. c #606790",
"W. c #747D92",
"Q. c #807485",
"!. c #86849C",
"~. c #B19F9C",
"^. c #A89188",
"/. c #BAA394",
"(. c #9297AB",
"). c #B8B0B0",
"_. c #A4ABB8",
"`. c #FDBA83",
"'. c #EBB68A",
"]. c #FBCC9C",
"[. c #DFC8AC",
"{. c #EBD1B0",
"}. c #F6D8B0",
"|. c #BCC2CA",
" X c #C5CFCA",
".X c #EBDEC4",
"XX c #E1EADD",
/* pixels */
"      u.u.u.u.u.w w w . . . . . . u.u.u.u.u.w w w . . . . . . u.u.w w w w w w w w w w w w w w       ",
"      u.u.u.u.u.w w w . . . . . . u.u.u.u.u.w w w . . . . . . u.u.w w w w w w w w w w w w w w       ",
"      u.u.u.u.u.w w w . . . . . . u.u.u.u.u.w w w . . . . . . u.u.w w w w w w w w w w w w w w       ",
"      u.u.u.w w u.u.u.w w w u.u.u.u.u.u.u.u.u.u.u.u.u.u.w w w w w w w w u.u.u.u.u.u.w w u.u.u.      ",
"      u.u.u.w w u.u.u.w w w u.u.u.u.u.u.u.u.u.u.u.u.u.u.w w w w w w w w u.u.u.u.u.u.w w u.u.u.      ",
"      u.u.u.w w u.u.u.w w w u.u.u.u.u.u.u.u.u.u.u.u.u.u.w w w w w w w w u.u.u.u.u.u.w w u.u.u.      ",
"      u.u.u.u.u.w w w u.u.u.u.u.u.u.u.u.u.u.u.u.u.w w w w w w u.u.u.u.u.w w w w w w w w u.u.u.      ",
"      u.u.u.u.u.w w w u.u.u.u.u.u.u.u.u.u.u.u.u.u.w w w w w w u.u.u.u.u.w w w w w w w w u.u.u.      ",
"      u.u.u.w w w w w w w w w w w w w w w w w w w w w w u.u.u.u.u.w w w u.u.u.w w w w w u.u.u.      ",
"      u.u.u.w w w w w w w w w                                       w w u.u.u.w w w w w u.u.u.      ",
"      u.u.u.w w w w w w w w w     X X X X X X X X X X X X X X X     w w u.u.u.w w w w w u.u.u.      ",
"      w w w w w w w w w w       o O % % % % % % % % % % % % % O O       w w w w w w w w w w w       ",
"      w w w w w w w w w w     o & < 9 c c c c c c c c c c c 9 5 * %     w w w w w w w w w w w       ",
"      w w w w w w w w       o % < h K $.$.$.$.$.$.$.$.$.$.$.I k 5 % o       w w w w w w w w w       ",
"      w w w w w w w w     O & < 6 h c v E $.$.$.$.$.$.$.%.P c j 8 < * %     w w w w u.u.u.u.u.      ",
"      w w w w w w w w   X O < 9 9 9 9 9 v $.$.$.$.$.$.$.I j 9 9 9 9 5 % X   w w w w u.u.u.u.u.      ",
"      w w w w w w w w   X O < 9 9 9 9 9 c v v v v v v v c h 9 9 9 9 5 % X   w w w w u.u.u.u.u.      ",
"      u.u.u.w w u.u.u.  X O < 9 9 9 h h h h h h h h h h h h 9 9 9 9 5 % X   w u.u.u.w w u.u.u.      ",
"      u.u.u.w w u.u.u.  X O < 9 9 h P $.$.$.$.$.$.$.$.$.$.$.I k 9 9 5 % X   w u.u.u.w w u.u.u.      ",
"      u.u.u.w w u.u.u.  X O < 9 9 j &.9.9.9.9.9.9.9.9.9.9.9.*.b 9 9 5 % X   w u.u.u.u.u.w w w       ",
"      u.u.u.w w u.u.u.  X O < 9 8 8 b +.+.+.1.v.v.v.4.&.+.+.K 9 8 8 5 % X   w u.u.u.u.u.w w w       ",
"      u.u.u.w w u.u.u.  X O < 9 6 < 5 6 6 6 ,.S.D.D.4.k 6 6 5 < 6 8 5 % X   w u.u.u.u.u.w w w       ",
"      u.u.u.w w .     ; i T L z R ..H a a a ,.S.J.J.4.F a a x [ X.l 0 Y p 7     w w u.u.u.u.u.      ",
"      u.u.u.w w .   X : 3.n.@.l T.(.O.d d d :.S.J.J.g.H d d ] !.!.R U p.z.u X   w w u.u.u.u.u.      ",
"      u.u.u.w w .   X : 2.S.p.5.~.|.W.f f f 6.S.J.J.g.J f f U._.).q.3.V.n.y X   w w u.u.u.u.u.      ",
"      u.u.u.w w w   X : 2.D.S.H.{.XX(.S S S 6.K.J.J.f.[ S S W. X.X'.A.F.n.y X   w w w w u.u.u.      ",
"      u.u.u.w w w     : =.i.m.P.].}./.7.7.7.f.N.N.N.x.6.7.7.^.[.}.`.A.z.-.e X   w w w w u.u.u.      ",
"      u.u.u.w w w       ; e 2.J.L.`.H.C.C.C.v.e.e.e.c.m.C.C.H.P.L.J.n.p >       w w w w u.u.u.      ",
"      w w w w w w w w     = =.i.v.B.F.J.J.J.B.c.c.c.N.F.J.J.F.B.m.z.-.e X   w w w w w w w w w       ",
"      w w w w w w w w       : 7 #.w.N.J.J.J.F.S.S.S.F.J.J.J.B.c.1.y :       w w w w w w w w w       ",
"      w w w w w w w w       @ 1 Y >.x.B.B.B.B.B.B.B.B.B.B.B.v.0.W 2 @ +     w w w w w w w w w       ",
"      w w w w w w w w   X + 1 n _ ` <.w.w.w.w.w.w.w.w.w.w.w.0.' Q m q @ X   u.w w w w w u.u.u.      ",
"      w w w w w w       3 e G ! / ~ ' >.>.>.>.>.>.>.>.>.>.>.' ) ~ ) ! t 3 :     w w w w u.u.u.      ",
"      u.u.u.w w w   X : -.l.b.k.t.C / ( ( ( ( ( ( ( ( ( ( ( ) ~ r.h.b.l.3.r X   w w u.u.w w w       ",
"      u.u.u.w w w   X : 2.J.J.A.s.^ ^ ^ ^ ^ Z B B B V ^ ^ ^ ^ ^ y.Z.J.J.n.y X   w w u.u.w w w       ",
"      u.u.u.w w w   X : 2.J.J.G.j.Y.Y.Y.Y.Y.N 1 - - m o.Y.Y.Y.Y.d.M.J.J.n.y X   w w u.u.w w w       ",
"      u.u.u.w w u.  X : ;.n.n.b.8.R.R.R.U.U.M O X X s  .U.E.R.R.Q.f.n.n.a.r X   w w u.u.u.u.u.      ",
"      u.u.u.w w u.      e y y L { I.I.| A g , X X X # s M | I.I.{ G y y r 4     w w u.u.u.u.u.      ",
"      u.u.u.w w u.u.u.  X X X O d } } D s X X X X X X X , A } } f $ X X X   . w w w u.u.u.u.u.      ",
"      w w w w w u.u.u.                                                      w w w w u.u.w w w       ",
"      w w w w w u.u.u.u.u.u.u.u.u.w w w w w w w w w w w w w w . . . . . w w w w w w u.u.w w w       ",
"      w w w w w u.u.u.u.u.u.u.u.u.w w w w w w w w w w w w w w . . . . . w w w w w w u.u.w w w       ",
"      w w w w w w w w w w w w w w w w u.u.u.u.u.u.w w w w w w u.u.u.u.u.u.u.u.u.u.u.w w w w w       ",
"      w w w w w w w w w w w w w w w w u.u.u.u.u.u.w w w w w w u.u.u.u.u.u.u.u.u.u.u.w w w w w       ",
"      u.u.u.u.u.w w w u.u.u.w w w u.u.u.u.u.w w w u.u.u.w w w w w u.u.u.u.u.u.w w w u.u.w w w       ",
"      u.u.u.u.u.w w w u.u.u.w w w u.u.u.u.u.w w w u.u.u.w w w w w u.u.u.u.u.u.w w w u.u.w w w       ",
"      u.u.u.u.u.w w w u.u.u.w w w u.u.u.u.u.w w w u.u.u.w w w w w u.u.u.u.u.u.w w w u.u.w w w       ",
"                                                                                                    ",
"                                                                                                    ",
"                                                                                                    "
};
