/* XPM */
static char *d46f04755a174c4deb97ebd099b21441Up7Gz6oEdwrxlKU7[] = {
/* columns rows colors chars-per-pixel */
"50 50 64 1 ",
"  c #AD3534",
". c #A73936",
"X c #AE3836",
"o c #AF3C3A",
"O c #B03B38",
"+ c #B13E3D",
"@ c #B5433A",
"# c #B24341",
"$ c #B44745",
"% c #B54947",
"& c #C15640",
"* c #C25841",
"= c #C55C42",
"- c #D27049",
"; c #D6774C",
": c #D7784B",
"> c #E08650",
", c #E69054",
"< c #F6AB5E",
"1 c #F9AE5E",
"2 c #FAB05F",
"3 c #F4AE63",
"4 c #F9AF60",
"5 c #F9B061",
"6 c #F9B166",
"7 c #D1908F",
"8 c #EBBA86",
"9 c #E3BFBE",
"0 c #E5BEBE",
"q c #F8C38A",
"w c #FCCC98",
"e c #FCD1A3",
"r c #FCD4A8",
"t c #FCD6AF",
"y c #FDDEBE",
"u c gainsboro",
"i c #E5C0C0",
"p c #FCCFD0",
"a c #E4D7D7",
"s c #FFD4D5",
"d c #FEECD8",
"f c gray89",
"g c gray90",
"h c gray92",
"j c #ECECEC",
"k c #F4E3E3",
"l c #F5E7E6",
"z c #F7EDE3",
"x c #FEEFE0",
"c c #F6EAE9",
"v c #F9EFEF",
"b c #FEF1E2",
"n c #FEF1E4",
"m c #FEF7EE",
"M c gray95",
"N c #F4F4F4",
"B c #F9F0F0",
"V c #FEF7F0",
"C c #FBF5F5",
"Z c #FCF7F7",
"A c #F9F9F9",
"S c #FCF8F8",
"D c #FFFDFB",
"F c white",
/* pixels */
"hhhFFFFhhhFFFhhhhFFFhhhFFFFhhhFFFhhhhFFFhhhFFFFhhh",
"hhhFFFFhhhFFFhhhhFFFhhhFFFFhhhFFFhhhhFFFhhhFFFFhhh",
"hhhFFFFhhhFFFhhhhFFFhhhFFFFhhhFFFhhhhAFFhhhFFFFhhh",
"FFFhhhhFFFhhhFFFFhhhFFFhhhhFFFhhhFFFAhhhFFFhhhhFFF",
"FFFhhhhFFFhhhFFFFhhhFFFhhhhFFFhhhFFAFhhhFFFhhhhFFF",
"FFFhhhhFFFhhhFFFFhhhFFFhhhhFFFhhhXXXXhhhFFFhhhhFFF",
"FFFhhhhFFFhhhFFFFhhhFFFhhhhFFFhhXX11XhhhFFFhhhhFFF",
"hhhFFFFhhhFFFhhhhFFFhhhFFFFhhhFFX1111XFFhhhFFFFhhh",
"hhhFFFFhhhFFFhhhhFFFhhhFFFFhhhFXX1XX1XXFhhhFFFFhhh",
"hhhFFFFhhhFFFhhhhFFFhhhFFFFhhjXX1XXXX1XFhhhFFFFhhh",
"FFFhhhhFFFhhXXXXFhhhFFFhhhhMFAX1XXssX1XhFFFhhhhFFF",
"FFFhhhhFFFhXX11XXhhhFFFhhhjFMNX1XsssX<XhFFFhhhhFFF",
"FFFhhhhFFFhX1111XXhhFFFhgguFAXX1XsssX2XhFFFhhhhFFF",
"hhhFFFFhhhFX1XXX1XXZhhhFjFNhXX1XssssX1XFhhhFFFFhhh",
"hhhFFFFhhhFX1XsXX1XXahhFSXXXX11XsssXX1XFhhhFFFFhhh",
"hhhFFFFhhhFX1XssXX1XXXXXXX11111XsssX11XFhhhFFFFhhh",
"hhhFFFFhhhFX1XsssXX11111FAF1161XXXXX1XXFhhhFFFFhhh",
"FFFhhhhFFFhX1XXsssXX11118FF111111XX1<XhhFFFhhhhFFF",
"FFFhhhhFFFhhX1XXsspo13111NA111111111XXhhFFFhhhhFFF",
"FFFhhhhFFFhhhX1Xsss.11111zFm11111111XhhhFFFhhhhFFF",
"hhhFFFFhhhFFFXX1XXX111111qFF11XX1111XXFFhhhFFFFhhh",
"hhhFFFFhhhFFFhX11111111161FF11XX11111XFFhhhFFFFhhh",
"hhhFFFFhhhFFFhXX1111111XX1FFF1111111<XFFhhhFFFFhhh",
"FFFhhhhFFFhhhFFXX311116X 1FkXOFd4111DXXhFFFhhhhFFF",
"FFFhhhhFFFhhhFFFX111111111+   cXFV11FCXhFFFhhhhFFF",
"FFFhhhhFFFhhhFFF#1111111yFX   FXFFFFFXXhFFFhhhhFFF",
"FFFhhhhFFFhhhAFFX111111xlFFSXXXXFFFFFXhhFFFhhhhFFF",
"hhhFFFFhhhFFFhhhXFF1111FFXXXXFFFFFFFFXFFhhhFFFFhhh",
"hhhFFFFhhhFFFhhhXXFFt1FFFFFFFFFFFFFF XFFhhhFFFFhhh",
"hhhFFFFhhhFFFhhhhXXFFFFFFFFFFFFFFFF%FXFFhhhFFFFhhh",
"FFFhhhhFFFhhhFFFFXXXXFFFFFFFFFFFFFFFFXXhFFFhhhhFFF",
"FFFhhhhFFFhhhFFFBXFFXXFFFFFFFFFFFFFFFMXhFFFhhhhFFF",
"FFFhhhhFFFhhhFFFX-cFFFFFFFFXvFXvFFFFFXXhFFFhhhhFFF",
"hhhFFFFhhhFFFhhX;1@0FFFFFFFFXXFFFFFFFXXFhhhFFFFhhh",
"hhhFFFFhhhFFFhXX111=vFFFFFFFFFFFFFFF9XFFhhhFFFFhhh",
"hhhFFFFhhhFFFXX11111> cFFFFFFFFFFFFXXXFFhhhFFFFhhh",
"hhhFFFFhhhFFXX&1111111&lFFFFFFFFFFFFXFFFhhhFFFFhhh",
"FFFhhhhFFFhhXX111111111,XFFFFFFFFFFFXhhhFFFhhhhFFF",
"FFFhhhhFFFhXX*11111111111#FFFFFFFFXXXhhhFFFhhhhFFF",
"FFFhhhhFFFhXo1111111X1111r 7FFFFFFvXFhhhFFFhhhhFFF",
"hhhFFFFhhhFX:511XX11X111FF$FFFFFFXFXhFFFhhhFFFFhhh",
"hhhFFFFhhhFX11511X11XFwFFFXFFFFFFXFXhFFFhhhFFFFhhh",
"hhhFFFFhhhFFX115nXbeXXFFFF FFFFFXFFXhFFFhhhFFFFhhh",
"FFFhhhhFFFhhXFFFFXFFFXFFFF MFNFXFFFXFhhhFFFhhhhFFF",
"FFFhhhhFFFhhXXXFFXFFFXFFFF#FjFXXiXXXFhhhFFFhhhhFFF",
"FFFhhhhFFFhhhSXXXXXXXXFFFjXXXXXXXXFFFhhhFFFhhhhFFF",
"FFFhhhhFFFhhhFFFFhhhFXXXXXXFMFhhhFFFFhhhFFFhhhhFFF",
"hhhFFFFhhhFFFhhhhFFFhhhFFAMhhhFFFhhhhFFFhhhFFFFhhh",
"hhhFFFFhhhFFFhhhhFFFhhjjAAAhjhFFFhhhhFFFhhhFFFFhhh",
"hhhFFFFhhhFFFhhhhFFFhjfFFAFjfhFFFhhhhFFFhhhFFFFhhh"
};
