/* XPM */
static char *_64735c41e3f4944b06072d1e1c9b3d1[] = {
/* columns rows colors chars-per-pixel */
"50 50 2 1 ",
"  c None",
". c black",
/* pixels */
"                                                  ",
"                                                  ",
"                                                  ",
"                                                  ",
"                                                  ",
"                                                  ",
"                                                  ",
"                                                  ",
"                                                  ",
"                                                  ",
"                                                  ",
"                                                  ",
"                                                  ",
"                                                  ",
"                                                  ",
"                                                  ",
"                                                  ",
"                       ....                       ",
"                      ......                      ",
"                     ...  ...                     ",
"                    ...    ..                     ",
"                    ...   ...                     ",
"                     .......                      ",
"                      .....                       ",
"                       ...                        ",
"                      .....                       ",
"                     ... ...                      ",
"                    ...   ...                     ",
"                    ...    ..                     ",
"                     ...  ...                     ",
"                      ......                      ",
"                       ....                       ",
"                                                  ",
"                                                  ",
"                                                  ",
"                                                  ",
"                                                  ",
"                                                  ",
"                                                  ",
"                                                  ",
"                                                  ",
"                                                  ",
"                                                  ",
"                                                  ",
"                                                  ",
"                                                  ",
"                                                  ",
"                                                  ",
"                                                  ",
"                                                  "
};
