/* XPM */
static char *sprite_player_right1712252717[] = {
/* columns rows colors chars-per-pixel */
"50 50 190 2 ",
"   c #08091C",
".  c #0E161E",
"X  c #2F3E22",
"o  c #422B29",
"O  c #304027",
"+  c #7F5F4D",
"@  c #C97C35",
"#  c #D37635",
"$  c #DA7633",
"%  c #D27937",
"&  c #DD7B37",
"*  c #D97738",
"=  c #D37B3B",
"-  c #DD7C3B",
";  c #E27E3B",
":  c #837875",
">  c #CE7F46",
",  c #D27C41",
"<  c #E27D40",
"1  c #6E9F2C",
"2  c #688734",
"3  c #6B9030",
"4  c #729537",
"5  c #72A62C",
"6  c #7DA32D",
"7  c #76AB2D",
"8  c #79AD2F",
"9  c #7BAE31",
"0  c #7FAE39",
"q  c #7DB032",
"w  c #978D2E",
"e  c #979735",
"r  c #9A9936",
"t  c #9C993D",
"y  c #A68B2F",
"u  c #A58B33",
"i  c #A78A38",
"p  c #AC8C3A",
"a  c #B58132",
"s  c #BC8133",
"d  c #B58B3D",
"f  c #A9993D",
"g  c #82A52E",
"h  c #89A433",
"j  c #82AD32",
"k  c #8BAC35",
"l  c #82AE3A",
"z  c #8AAB3C",
"x  c #94A335",
"c  c #96A53F",
"v  c #99A33B",
"b  c #92A93C",
"n  c #83B234",
"m  c #89B537",
"M  c #85B23A",
"N  c #8CB639",
"B  c #8DB83A",
"V  c #91B43B",
"C  c #92BA3C",
"Z  c #CA873E",
"A  c #DE803F",
"S  c #E4813E",
"D  c #EA853F",
"F  c #A98C43",
"G  c #BC8E47",
"H  c #AA9643",
"J  c #AA9D44",
"K  c #BD944B",
"L  c #BC935A",
"P  c #88AE44",
"I  c #9AA743",
"U  c #97AA44",
"Y  c #9CAB44",
"T  c #96AB48",
"R  c #8AB445",
"E  c #8EB34B",
"W  c #92B64E",
"Q  c #9EAE54",
"!  c #98B656",
"~  c #9BB35C",
"^  c #A8A547",
"/  c #B8A34D",
"(  c #A7A853",
")  c #BBA250",
"_  c #B5856A",
"`  c #A68E7F",
"'  c #9CB760",
"]  c #BDA463",
"[  c #A4B866",
"{  c #ACB772",
"}  c #B6B777",
"|  c #C88A45",
" . c #D78747",
".. c #C6974D",
"X. c #D6934D",
"o. c #D78951",
"O. c #DC8D53",
"+. c #DA8E5C",
"@. c #C69C53",
"#. c #D89758",
"$. c #E58543",
"%. c #EB8642",
"&. c #E68845",
"*. c #E88844",
"=. c #EA8549",
"-. c #E58A4C",
";. c #EB8B4B",
":. c #E38E53",
">. c #E79458",
",. c #E6945C",
"<. c #EB9658",
"1. c #C2A556",
"2. c #CD9468",
"3. c #D69566",
"4. c #DA9866",
"5. c #D5946B",
"6. c #CF9874",
"7. c #D59E7C",
"8. c #E29764",
"9. c #E49C65",
"0. c #E69B6C",
"q. c #E49C6C",
"w. c #CFA66D",
"e. c #D5A468",
"r. c #C9A77D",
"t. c #EAA46B",
"y. c #E6A677",
"u. c #E9A374",
"i. c #E6A97C",
"p. c #A6C061",
"a. c #A39793",
"s. c #BDBE8D",
"d. c #B5A69B",
"f. c #BBB49B",
"g. c #DCB787",
"h. c #C8BD99",
"j. c #D6B793",
"k. c #E6A983",
"l. c #E6AB88",
"z. c #EEB487",
"x. c #EBB18D",
"c. c #E3B293",
"v. c #EAB592",
"b. c #EBB996",
"n. c #E7B699",
"m. c #EDBD9B",
"M. c #F0BA95",
"N. c #C2B1A9",
"B. c #D9BFB6",
"V. c #E6BDA6",
"C. c #F0BFA0",
"Z. c #BCC38F",
"A. c #BFC790",
"S. c #C8C897",
"D. c #CAC999",
"F. c #EEC19F",
"G. c #D4CDA4",
"H. c #DFC1AE",
"J. c #D6D0A9",
"K. c #D9C2B9",
"L. c #DFCBB9",
"P. c #DED5B2",
"I. c #EBC3A7",
"U. c #E9C1AC",
"Y. c #F1C7A6",
"T. c #F2C6AC",
"R. c #F2C9AA",
"E. c #E5C4B3",
"W. c #E4CBB7",
"Q. c #EFCDB4",
"!. c #E5CCBC",
"~. c #EACBBC",
"^. c #F2CCB3",
"/. c #E4D8B6",
"(. c #E4D3B9",
"). c #F4D2BD",
"_. c #EDCDC0",
"`. c #EBD2C3",
"'. c #EDD5CA",
"]. c #EEDCC8",
"[. c #F4D6C2",
"{. c #F9D7C6",
"}. c #F4D9C5",
"|. c #F2D6C9",
" X c #F4DACC",
".X c #F9DAC9",
"XX c #EDD1D0",
"oX c #F5DDD1",
"OX c #F8E2CE",
"+X c #F8E3D2",
/* pixels */
"q 9 9 q q 9 q q 8 q q q q q 8 q q 8 q 8 8 8 q 8 8 q 8 8 q 8 8 q q 9 9 q q 9 8 n 8 8 5 9 9 9 q 9 q q ",
"9 8 9 9 9 8 8 9 8 n q 8 8 q B 8 8 8 8 q 8 8 q B 8 7 7 8 m q q q 7 9 8 9 8 7 8 n 8 8 9 0 8 8 9 n q q ",
"9 5 M m 9 8 8 8 8 8 8 n q 8 8 q q q 7 q 8 q q q 8 7 8 8 8 q 8 8 7 n n C 8 q m 8 8 8 8 9 7 8 7 7 7 9 ",
"9 8 7 5 8 8 n M 8 8 8 8 8 8 8 m q 8 8 8 q 8 8 8 8 7 7 n q h K ..v j 9 8 8 8 8 7 8 M 8 8 8 9 8 7 m 9 ",
"8 7 9 5 8 7 8 8 8 m 8 8 8 8 8 8 8 q 9 7 C B q m 8 7 7 m n i &.&. .H 8 9 8 7 8 7 7 7 7 n 8 n 8 8 9 8 ",
"8 C B 8 8 8 8 8 7 8 8 8 8 8 8 8 8 n 9 7 n q q n 8 8 7 7 8 i < *.*.$.f 9 9 9 7 9 8 8 7 8 8 7 8 7 8 8 ",
"q n 8 8 7 8 q 8 7 8 8 8 q q q 7 8 q 9 9 8 n 8 8 8 n n 7 9 p * $.*.*.X.x C 9 9 m 8 9 7 9 9 n 8 8 9 8 ",
"9 8 8 8 9 m m 8 m 7 7 7 q m m q 8 n 9 9 8 B B q 8 8 9 8 7 p # & S D D Z j 9 9 9 8 9 9 9 n n 8 n 9 9 ",
"9 8 9 n 8 q 8 8 7 7 7 7 8 7 8 8 q 8 8 9 9 9 9 7 8 8 q 8 8 i # * ; S $.*.f 8 8 q 8 8 8 q 8 9 8 7 8 9 ",
"9 9 9 9 9 8 8 8 B n q 7 7 8 n 8 m 8 8 z Y Y V N 8 n j 8 8 i * , o.O.O. .| k 9 8 q 8 C 8 q n 8 9 9 q ",
"n 9 8 8 8 7 9 9 8 7 7 8 8 8 n 8 n 8 7 J +.+.@.b 8 7 7 8 B F 4.b.).).[.V.4.t m M 7 8 q 8 8 8 8 8 8 q ",
"q 9 q 8 7 9 9 9 8 7 8 8 8 8 7 7 8 8 9 K z.z.8.#.) b j 8 k @.t.i.v.R.[.{.[.r.9 9 8 7 q q n 8 9 n 9 q ",
"m q m 8 8 B n m 8 8 n 7 7 7 8 B 7 7 8 H m.{.U.y.:.<.@.J Z *.$.*.$.-.u.Y.OX].{ 9 8 7 n 8 m 9 j n 8 q ",
"9 8 7 9 9 8 8 9 8 8 8 8 7 7 7 7 8 7 n t y.}.[.U.k.:.;.&.*.*.%.$.%.%.*.4.x.)./.W m 7 7 7 8 7 7 9 9 q ",
"9 8 7 8 q 8 8 n q n 7 n 8 7 7 8 8 8 8 g | ^..XU.u.;.; %.*.D D %.%.%.<.z.#.c.}.S.M 7 5 1 7 7 7 9 8 8 ",
"9 9 7 7 7 8 8 n q n 8 8 8 8 q n n 7 7 n u i..X).u., %.%.%.%.%.%.;.*.-.#.r._ I.].S.4 X O 8 7 7 7 q 9 ",
"8 9 j 8 7 7 8 8 8 8 7 9 8 8 8 8 n 8 7 n 6 G F.).k.= %.%.%.%.%.%.%.%.;.:.` o 7.[.`.:   . 3 5 7 7 q 8 ",
"9 j m 8 8 9 8 8 7 9 7 9 q q 8 8 7 8 8 8 7 r X.R.c.- %.%.%.%.%.%.%.%.D %.2.+ 6.[.XXB.a.: 2 7 9 9 7 8 ",
"q 8 7 7 7 m 7 n q m 9 q B B 8 q B 8 8 8 8 m w ,.q.$.%.%.%.%.%.%.%.%.%.=.-.4.I. XoX XoXd.4 7 9 q 7 8 ",
"9 8 7 7 8 8 8 7 8 8 7 8 9 9 8 q n 9 8 8 9 8 8 d % - %.%.%.%.&.;.,.u.k.x.b.^. X XK.N.d.f.9 7 9 8 8 8 ",
"8 7 8 8 q 8 8 7 8 7 8 7 8 n q 8 8 9 8 8 9 n 8 k a S D D %.-.0.Y. X+X+X+XOX XoX XK.K.].A.9 8 9 8 8 8 ",
"9 9 q 8 m q 8 z k 7 m 7 8 q q q 9 n m 8 8 9 8 8 e o.;.:.9.M..X.X X X.XoX XoX'. X X XJ.R B 7 8 N 8 8 ",
"9 q q 7 8 9 N e.d 8 9 7 n q m q n j 8 8 8 m n 8 E H.U.T.}.+X X X X X X X X X'. X`.S.R 8 q 7 8 8 8 8 ",
"8 7 8 7 8 E G.9.% r c ^ 1./ ^ I N n 7 8 n 8 8 8 ~ H.'.oX X X X X X X X X X X`.S.[ q 9 8 8 7 8 8 9 9 ",
"0 7 8 5 0 J.^.:.D ;.=.&.*.*.;.;.X...^ v z z N U e.n._. X{. X X X X X X X XW.s.9 C m 7 7 m 7 9 8 9 q ",
"M 8 m 8 R (.b.S %.%.%.*.*.*.%.< %.%.;.-.X.#.e.9.<.8.V.|. XoXoX X X X X X'.h.9 7 8 7 7 5 8 8 m q 7 0 ",
"8 8 7 8 m S.i.$.%.D D D %.%.%.%.;.D %.D %.*.%.*.%.*.0.V.'. X X XoX X X X'.s.M m q 8 m 7 8 8 q 8 8 9 ",
"M n 8 8 m c X.D D D ;.%.%.%.%.%.D %.%.%.%.%.%.%.%.D *.0.V.[. X|.{. X X X|.s.7 8 8 7 8 7 7 8 8 8 8 q ",
"n 7 7 7 8 r &.D %.%.%.%.%.%.%.%.%.%.%.%.%.%.%.%.%.%.%.*.:.k.T.).^. X X X].Z.8 7 8 7 7 7 8 q 8 8 M q ",
"n M n 7 8 p *.D %.%.%.%.%.%.%.%.%.%.%.%.%.%.%.%.%.%.%.%.D =.>.t.i.U.{. X}.{ 8 B 8 m 8 7 8 q 7 7 8 8 ",
"n M q 7 j Z D %.%.%.%.;.%.%.%.%.%.%.%.%.%.%.%.%.%.%.%.%.%.%.%.%.$.:.k.Q.(.E 7 8 8 q 7 7 5 8 8 8 7 8 ",
"9 7 9 9 6 A %.D %.%.D %.%.%.%.%.%.%.%.%.%.%.%.%.%.%.%.%.%.%.%.*.%.%.$.O.] 9 8 q 8 8 7 7 5 8 8 8 8 8 ",
"9 7 7 9 h = %.%.%.%.%.%.%.%.%.%.D %.%.%.%.%.%.%.%.D %.D %.%.%.D D %.%.%. .v 8 8 8 7 7 7 7 m n 8 q 8 ",
"9 8 8 8 g = %.%.%.%.%.%.%.%.%.%.%.D S %.%.%.%.%.%.S D %.%.%.%.%.%.%.%.%.%.X.c 8 8 8 8 8 7 8 8 n m 8 ",
"9 8 q 8 g @ %.D %.%.%.%.%.%.%.%.%.; S %.%.%.%.%.%.D ; ; =.%.%.%.%.%.D %.%.*.@.j m m 8 n 8 7 7 8 q 8 ",
"9 7 7 7 8 s %.D %.%.D %.%.D ;.%.& & %.%.%.%.%.%.%.D ; $ ; %.%.%.%.%.%.%.%.%.<.^ n 8 q n 7 8 7 8 n 8 ",
"n 9 8 8 7 a S *.%.%.%.%.%.%.D S # ; %.%.%.%.%.%.%.%.=.< - = ; < ; %.%.$.%.%.;.K 8 8 q 8 7 7 7 7 7 5 ",
"8 9 8 8 7 y - %.%.D %.%.%.D & # - *.%.D D D %.;.;.<.u.M.T.n.6.> , & & $.%.*.>.g.R 8 8 9 n j 7 7 5 8 ",
"B 8 N 9 j w & %.%.%.%.%.D * > x.T.C.b.v.v.m.m.T.).[.{.{.|.~.U.j.( x w @ - ,.I.[.P.R 8 8 n n j 9 7 8 ",
"M 9 q 9 8 h @ S %.%.$.,  .#  .q.l.j.D.D.G.W.W.~.~.~.V.B.h.} ~ E 9 V q h F c.`.|.L.W 7 7 9 8 9 7 7 7 ",
"q 8 n n 8 g s - =.9.w.I I > # , 3.Q l 0 0 P P L +.+.5.r.! R q 9 8 q 8 8 j R ' ! ! 9 7 7 7 7 7 7 8 8 ",
"8 7 7 8 8 7 i = x.{./.[ 0 | , k.[.!.! 8 N 7 7 w # o.n.'.P.! 8 8 q 8 q 9 8 7 j 8 8 8 8 m m n 8 7 8 B ",
"8 7 7 8 8 j v w.E._.`.Z.8 t 7.E.oX`.~ 8 8 7 7 6 @ j._.'.!.! 8 q 8 n 9 n 7 9 m m q 9 7 q 8 8 8 8 8 8 ",
"9 q n n 8 8 9 T { { { ! M N Q { p.[ 0 8 9 7 n 9 z ' s.p.! R q B q n 9 n 7 8 8 8 q q 9 9 M 8 8 9 8 q ",
"9 q n M 8 8 7 7 9 8 8 9 0 9 9 9 9 M 8 8 8 8 8 7 5 8 7 0 9 q 8 8 7 7 8 7 8 8 7 8 8 7 7 7 7 8 8 9 8 8 ",
"8 9 8 8 8 8 7 7 7 7 8 7 7 7 7 7 8 7 8 8 7 7 7 8 9 9 9 5 9 8 8 8 8 7 n m 8 7 7 7 8 8 7 7 7 8 9 9 8 q ",
"9 8 9 8 8 9 8 8 7 7 7 9 8 5 8 8 8 8 8 q 9 8 7 8 8 8 8 7 8 5 7 7 8 7 7 7 7 7 7 7 n q 7 m 9 8 B 8 8 8 ",
"q 8 q m 8 8 7 8 C 7 9 9 8 8 9 9 8 8 9 n 9 8 n n 7 7 9 j 8 7 7 8 m 7 7 7 7 n 5 7 7 7 7 n 8 7 n 9 7 8 ",
"q 8 8 9 8 n q 8 q 7 8 8 8 n M B q q M 7 7 q q q 8 8 8 8 8 9 8 8 7 8 7 n 7 j 7 8 7 7 n n n 7 n q 7 9 ",
"9 7 9 9 8 0 9 q 8 q 8 8 8 q 9 q 8 8 8 7 7 m q q q 8 8 8 9 8 8 8 8 m 8 n 7 7 9 9 7 8 9 q q 9 q 9 8 9 "
};
