/* XPM */
static char *sprite_player_left1712252717[] = {
/* columns rows colors chars-per-pixel */
"50 50 202 2 ",
"   c #0B0F1E",
".  c #1A2522",
"X  c #554137",
"o  c #6A483C",
"O  c #536D2C",
"+  c #4D4D48",
"@  c #595258",
"#  c #686954",
"$  c #C57F36",
"%  c #CA7B35",
"&  c #C67F38",
"*  c #D57534",
"=  c #D97634",
"-  c #D27836",
";  c #DE7835",
":  c #D67739",
">  c #D37A3C",
",  c #DB7C3A",
"<  c #E17E3B",
"1  c #CE7D48",
"2  c #D07B43",
"3  c #E17D40",
"4  c #6A982C",
"5  c #6D9331",
"6  c #7D9C37",
"7  c #72A72A",
"8  c #7CA72D",
"9  c #76AB2D",
"0  c #79AD2F",
"q  c #7BAE31",
"w  c #7AA835",
"e  c #7EB032",
"r  c #7FB038",
"t  c #988C2E",
"y  c #859F2F",
"u  c #8D9E33",
"i  c #969B37",
"p  c #9C9B35",
"a  c #A78734",
"s  c #AB8A39",
"d  c #B48431",
"f  c #B48C3B",
"g  c #B9883A",
"h  c #A59437",
"j  c #B8963E",
"k  c #84A42F",
"l  c #8AA333",
"z  c #8AA636",
"x  c #82AC34",
"c  c #8AAD34",
"v  c #83AD3A",
"b  c #8AAB3B",
"n  c #90A035",
"m  c #96A33D",
"M  c #92A93C",
"N  c #83B234",
"B  c #89B537",
"V  c #85B23A",
"C  c #8BB738",
"Z  c #8EB83A",
"A  c #91BA3C",
"S  c #C6823A",
"D  c #DF803E",
"F  c #E4813E",
"G  c #EA853E",
"H  c #A89A43",
"J  c #B2904C",
"K  c #B39B52",
"L  c #9DA743",
"P  c #9BA841",
"I  c #86B241",
"U  c #8BB444",
"Y  c #8DB24A",
"T  c #99BA49",
"R  c #93AF51",
"E  c #93B354",
"W  c #9AB153",
"Q  c #9CBB54",
"!  c #99B45A",
"~  c #A7A347",
"^  c #B4A34B",
"/  c #A6A853",
"(  c #B6A655",
")  c #A2B85D",
"_  c #B38B6F",
"`  c #A28D7D",
"'  c #9CB563",
"]  c #A7B267",
"[  c #A7B66B",
"{  c #A6BA6C",
"}  c #ACB773",
"|  c #B7B476",
" . c #B4BA7C",
".. c #C98748",
"X. c #D58143",
"o. c #DD8342",
"O. c #D88946",
"+. c #DC8C4A",
"@. c #C5954A",
"#. c #D6934F",
"$. c #D68D5A",
"%. c #C99C51",
"&. c #C99658",
"*. c #D79352",
"=. c #D39C55",
"-. c #DE925A",
";. c #E68543",
":. c #EB8642",
">. c #E78946",
",. c #E7874A",
"<. c #EB8648",
"1. c #E58B4C",
"2. c #E98B4A",
"3. c #E68E54",
"4. c #E69356",
"5. c #E99355",
"6. c #E59359",
"7. c #F09358",
"8. c #C9A257",
"9. c #CE8D66",
"0. c #DA9568",
"q. c #DC9D6B",
"w. c #D39C74",
"e. c #E49664",
"r. c #E39962",
"t. c #EC9C65",
"y. c #E39D6D",
"u. c #C4A968",
"i. c #D5A265",
"p. c #CCA37D",
"a. c #DFA272",
"s. c #DEA27B",
"d. c #D1B37A",
"f. c #E4A06D",
"g. c #E2A576",
"h. c #E3A47A",
"j. c #E9A67A",
"k. c #AEC16F",
"l. c #ADC173",
"z. c #B59F9B",
"x. c #A5A286",
"c. c #B5BB85",
"v. c #BABB84",
"b. c #BBBE8F",
"n. c #ACA493",
"m. c #BFADA5",
"M. c #DCB08A",
"N. c #CABE9E",
"B. c #D7B490",
"V. c #EBAE84",
"C. c #E4AB88",
"Z. c #E9B389",
"A. c #EBB28B",
"S. c #E5B294",
"D. c #EBB694",
"F. c #EDBA96",
"G. c #ECBD9E",
"H. c #CBB5AD",
"J. c #E8BBA2",
"K. c #F1BDA0",
"L. c #B7C681",
"P. c #BEC289",
"I. c #BFC692",
"U. c #C1C889",
"Y. c #C7C89A",
"T. c #CACD9A",
"R. c #F2C09F",
"E. c #D5CCA6",
"W. c #D9C6A9",
"Q. c #DECCAC",
"!. c #D4D2A3",
"~. c #DBC9BA",
"^. c #DED2B3",
"/. c #EBC4A6",
"(. c #E6C2AE",
"). c #F2C6A4",
"_. c #F2CAAD",
"`. c #E4C1B1",
"'. c #EBC5B2",
"]. c #E8C7B8",
"[. c #E3CDBC",
"{. c #E9CABC",
"}. c #F3CDB4",
"|. c #F3CEBA",
" X c #F8CBB9",
".X c #E4D5B8",
"XX c #E5D1BC",
"oX c #F4D2BA",
"OX c #ECCEC1",
"+X c #E9CDCA",
"@X c #EBD3C4",
"#X c #EFD7CA",
"$X c #EBD9CC",
"%X c #F2D5C3",
"&X c #F4DAC5",
"*X c #F8D8C2",
"=X c #F2D6CB",
"-X c #F4DACC",
";X c #F9DACC",
":X c #F6DBD0",
">X c #F7DAD1",
",X c #FAE0CF",
/* pixels */
"r q q q r e e r e e r e e r e 0 e 0 e q e 0 q q q e 0 q q 0 q r e e 0 0 e e e e 0 9 9 q 0 e e e e e ",
"q 9 q q 0 0 0 0 0 N q 0 0 0 C 0 0 9 0 r 0 0 e C 0 7 9 0 V e q e 0 0 0 e 0 9 e e 0 0 e e 0 0 0 N q e ",
"q 9 N B q 0 0 0 0 0 0 N N 0 9 e 0 0 9 e 0 0 0 e 0 9 9 0 0 e 0 0 e e N A 0 e B 0 0 e 0 0 0 0 9 9 9 q ",
"q 9 9 7 0 0 N N 0 0 0 0 0 0 0 B x x m m N e 0 e 0 9 9 N e 0 0 N 0 0 e 0 0 9 0 9 0 N 0 0 0 0 0 0 V e ",
"0 0 0 9 0 0 0 0 0 B q 0 0 0 q 0 z @.+.>.h Z e N 0 9 9 B N e 0 N 0 0 0 0 0 0 0 0 0 9 9 N 0 e 0 0 e q ",
"0 A C 0 0 0 0 0 0 0 9 0 q 0 0 l ..F ;.;.s e e N 0 0 9 9 0 0 9 0 7 0 e 0 0 0 9 9 9 0 9 0 0 0 0 0 9 9 ",
"q N 0 0 9 0 q q 0 0 8 0 N 0 x j :.<.;., s V e 0 0 N N 0 0 B 0 N 9 0 C e A 0 e B 0 e 0 e 0 e 0 0 q q ",
"q 0 0 0 0 B B 0 N 9 9 9 0 B j ;.:.:.F * s Z C e 9 0 0 0 9 0 0 9 9 0 e e 0 e 0 e 0 0 9 e e B 0 N e 0 ",
"q q q x 0 e 0 0 9 0 9 9 0 n O.>.;.F = = s 0 q 0 0 0 e 0 0 9 w 0 0 0 0 0 e 0 e 0 0 0 0 0 q 0 0 0 9 q ",
"q q q e 0 0 0 0 Z N q 7 8 J F ;.D : : = s N C B 0 N N q q x e e B 0 0 0 e N 0 e e e A 0 e N 0 0 e q ",
"N q 0 0 0 0 q 0 0 9 0 0 l ..s.F./.S.a...a 9 9 0 0 0 c ~ &.%.m 0 e 0 0 0 N C C B 0 0 e 0 0 0 0 0 0 e ",
"e q q 0 0 0 e e 0 9 0 0 K /.;X,XoX}.R.V.K 9 7 0 0 m %.-.y.f.J q N N B 0 0 0 0 0 0 0 e e N 0 0 N q e ",
"N N N q 0 Z N B 0 0 N Y Q.-XoXF.f.6.1.1.+.f z ~ =.4.r.S. XF.H q 0 0 0 0 q 0 e 9 0 9 N 0 C 0 q N 0 e ",
"e 0 9 0 e 0 0 q q 0 V T.,X_.a.>.:.:.:.<.<.:.+.7.3.y.J.OX*XV.h 0 q 0 0 9 B 0 B 0 B 9 7 9 0 9 0 0 q e ",
"q 0 0 0 e 0 9 q q V l.#X/.q.j.4.>.:.:.G G <.;.F 3.V.'.-X|.*.l 9 N 0 0 0 0 9 0 0 9 0 0 7 9 9 9 0 9 q ",
"q 0 0 9 7 0 O O 8 k.XXoXw.w.f.4.:.:.>.:.:.:.:.;.;.r.}.-XZ.s 8 9 0 0 0 B 0 0 9 7 0 0 N 0 e 0 9 0 e q ",
"0 e r q 9 4 .   # XX%XS.o ` -.<.:.:.:.:.:.:.:.:.< h.oX_.&.y 9 0 q 0 0 0 0 N 0 q q N B N N 9 9 0 N 9 ",
"q e N q 9 5 + @ z.+X%Xw.X _ <.:.:.:.:.:.:.:.:.:.2 D.oX0.p 9 N 0 B N e e 0 N e N q e 0 e 0 9 0 0 9 9 ",
"e 0 9 7 9 6 n.$X-X:X-XS.9.-.<.:.:.:.:.:.:.:.:.:.F h.h.d c 9 N 0 0 0 0 0 0 0 e q 0 0 0 B 0 9 0 e 9 9 ",
"q 9 9 9 0 r x.m.~.+X-X&XG.g.y.e.4.2.:.:.:.:.:.:.F o.g k 0 0 q 9 N q N 0 0 0 0 e e 0 0 0 0 0 0 0 0 0 ",
"q 9 9 q e 0 I.[.H.H.=X=X;X;X&X*X*X}.Z.4.,.:.:.G , $ l 0 9 9 0 0 N 9 q 0 9 0 0 0 0 0 0 0 q 9 q 0 0 0 ",
"q q r 9 B e Y ^.-X:X:X-X-X-X-X-X-X,X,XoXj.1.:.;.F p 0 0 0 0 0 N 0 0 9 0 0 0 9 0 q N q q Z 9 0 C q 9 ",
"0 e e 9 0 0 r ) E.$X$X-X-X-X-X-X-X-X-X:X-X}.F.Z.M.T N 0 q 0 8 0 9 q q q B 0 0 N N f ( e e 9 9 0 0 0 ",
"0 9 0 9 0 q q 0 V l.^.=X-X-X-X-X-X-X-X-X-X-X-X-XH.! 0 9 N q 0 q N B b z P L M c p - a.L.r 9 0 q q 0 ",
"e 0 0 9 9 0 B N 0 0 Q b.[.-X-X-X-X-X:X-X-X&X-X+XK.u.c v v v x m ^ %.#.1.1.1.#.#.O., r.oXU.9 0 0 q r ",
"V 0 N 9 0 0 q q 0 0 0 v N.%X-X-X-X-X-X-X:X-X-XJ.y.t.i.u.8.%.4.2.2.:.G G G >.:.G :.;.;./..XV B N 0 e ",
"q 0 9 0 x 0 9 9 9 q q 0 c.#X-X-X:X-X-X-X-X=X].j.1.<.2.1.2.:.G G :.:.:.:.G >.:.:.:.:.;.D.Y.q q 0 0 e ",
"V N 0 0 N N 9 0 N 0 q 0 c.=X-X-X-X=X-X-X&X].j.>.:.:.:.:.:.:.:.:.:.:.:.:.G G G :.:.:.;.=.b 0 0 0 q q ",
"q 0 9 0 0 9 9 9 8 0 0 0 c.-X-X:X-XoXoXoXF.r.2.G :.:.:.:.:.:.:.:.:.:.:.:.:.:.:.:.:.:.G o.l 0 0 0 N e ",
"N N N 0 q 0 7 0 0 9 0 q } =X-X-X|.S.V.r.2.G :.<.:.:.:.:.:.:.:.:.:.:.:.:.:.:.:.:.:.:.G ;.h x 0 0 0 0 ",
"N N N 9 N 0 9 e 9 0 x C Y XXoXF.r.,.<.<.:.:.:.:.:.:.:.:.:.:.:.:.:.:.2.:.:.:.:.:.:.:.G :.f 9 0 9 9 0 ",
"q 0 0 0 0 9 9 Z 9 9 0 q N | 0.o.:.:.>.:.:.:.:.:.:.:.:.:.:.:.:.:.:.:.:.:.:.:.:.:.:.:.:.:.S w 9 0 0 0 ",
"e 9 9 q 0 0 0 9 7 0 0 B M ..G :.:.:.:.:.:.:.:.:.:.G :.:.:.:.:.:.:.:.:.:.:.:.:.:.:.:.<.:.> C N 0 e q ",
"q 0 0 q 0 9 9 0 0 0 0 z #.G >.:.:.:.:.:.:.:.< < < :.:.:.:.:.:.G :.:.:.:.:.:.:.:.:.:.< :.$ k 0 N V 0 ",
"q 0 q 0 7 9 N e N e x 8.>.:.:.G :.:.:.:.:.:.:.< G :.:.:.:.:.:.< < :.:.:.:.:.:.:.:.:.:.:.S 8 8 0 e 0 ",
"r 9 9 9 0 0 e 0 0 0 M 5.>.>.G :.:.:.:.>.:.< < < :.:.:.:.:.:.:.:.; < :.:.:.:.:.:.:.:.:.:.d 0 9 0 V 9 ",
"e 0 0 0 7 0 9 7 9 9 ^ 2.:.:.:.:.:.G F , , = < :.:.:.:.:.:.:.:.:.< * < :.:.:.:.:.:.G :.F d 9 7 9 9 9 ",
"q 0 0 9 9 0 0 0 q I d.5.>.:.G < > > 1 $.C.K.V.y.7.<.:.G G G G :.G ; * < G :.:.:.:.G G < h 0 9 0 9 9 ",
"Z 0 C e e 0 q A I !.%X).3.< % a u ^ B.'.{.%X=X%X X_.K.F.Z.V.V.Z.D.K.j.2 < G :.:.:.;.G * p N N 0 9 9 ",
"V q e q e 0 0 e U [.@X%XS.J u 9 8 w R [ v.N.`.].|.OX@X{.{..XE.E.W.S.h.X.- X.o.:.:.:.F % k 0 0 9 9 9 ",
"0 9 N N 0 0 0 q r ' { [ R x 9 0 N 0 0 q v W p.0.0.0.( Y Y U I I / $.> = 1 L L i.6.2., d 8 0 9 9 0 0 ",
"0 9 9 9 0 0 q 0 q 9 0 N 9 9 9 9 N N 0 0 Q ^.%XS.1 : t 0 0 e q ' ^.{.s.- ..q ' @XoXj.- h N x 0 0 0 C ",
"e 9 9 0 0 N C A 0 0 0 0 0 9 9 9 0 0 0 0 E XX#X{.S.g x 0 e e 0 ' @X#X(.w.i q Y.@X@X`.&.l 0 0 0 0 0 e ",
"e N N N 0 0 0 9 w 9 7 N N N 0 0 0 e e 9 r ' P.c.] m e 0 0 B e T { P. .] w 0 ! }  . .W q N 0 0 0 9 q ",
"0 e N N 0 0 9 9 9 0 9 q N 0 0 0 0 N q 0 0 q q 0 9 w 9 0 q e 9 q w 9 q 9 0 0 8 q q 0 9 9 0 0 0 q 0 0 ",
"0 0 0 q 0 0 9 9 9 9 0 9 0 0 9 0 9 0 0 0 0 9 0 0 q q 9 9 q 9 9 0 0 9 x B 0 9 0 0 q 9 9 0 9 0 e 0 0 e ",
"0 0 q 0 0 q 0 0 0 9 0 e 0 7 0 0 0 0 q e 0 9 9 0 0 0 0 9 q 9 9 q 0 7 0 9 9 9 9 7 N N 0 B q 0 C 0 0 0 ",
"e e 0 C 0 0 9 0 Z 9 0 0 0 0 e 0 0 0 0 N 0 q N N 9 9 0 N 9 9 9 9 B 9 0 9 9 N 7 9 9 9 9 e 0 0 N q 0 0 ",
"e 0 9 q 0 N 0 e e 9 0 0 q e V Z q e N 9 9 q e e q 0 0 0 9 q 0 9 0 0 0 x 9 e 9 0 7 0 N N N 0 r e 9 0 ",
"q 9 q q q r e 0 q q 0 0 e e q e q q 0 7 9 C e e e q 9 q 0 0 0 0 q N q N 9 0 0 0 0 e q q e 0 e q 0 e "
};
