/* XPM */
static char *sprite_exit_open1712252716[] = {
/* columns rows colors chars-per-pixel */
"50 50 190 2 ",
"   c #477338",
".  c #7E7527",
"X  c #19774B",
"o  c #1B7A4D",
"O  c #1B7C52",
"+  c #8C5D24",
"@  c #876625",
"#  c #8B6526",
"$  c #836D25",
"%  c #946028",
"&  c #9D662D",
"*  c #9B6B2B",
"=  c #807426",
"-  c #96702C",
";  c #9B742E",
":  c #9D7530",
">  c #9B7A32",
",  c #A16C2F",
"<  c #A4702F",
"1  c #A37332",
"2  c #AD7435",
"3  c #A47D31",
"4  c #B17534",
"5  c #B57835",
"6  c #BC7C37",
"7  c #BF743F",
"8  c #B57939",
"9  c #BB7E3A",
"0  c #C0723F",
"q  c #C27540",
"w  c #C57942",
"e  c #C97D44",
"r  c #3C8A3E",
"t  c #438E3D",
"y  c #46903D",
"u  c #5A9B38",
"i  c #7E8E2A",
"p  c #7D922B",
"a  c #78A72D",
"s  c #76AB2D",
"d  c #79AD2F",
"f  c #65A135",
"g  c #69A436",
"h  c #73AA35",
"j  c #7BAE31",
"k  c #7EB032",
"l  c #1F8156",
"z  c #2C8145",
"x  c #2A834B",
"c  c #338643",
"v  c #398944",
"b  c #358949",
"n  c #19B85F",
"m  c #3AAF5A",
"M  c #29B25B",
"N  c #03BE62",
"B  c #0BBB61",
"V  c #418F40",
"C  c #529245",
"Z  c #7C984C",
"A  c #789F51",
"S  c #4DA353",
"D  c #5AA756",
"F  c #8C872D",
"G  c #96922E",
"H  c #98922E",
"J  c #8C8C38",
"K  c #988733",
"L  c #8C9B32",
"P  c #989934",
"I  c #A88637",
"U  c #AD8637",
"Y  c #A68D39",
"T  c #BF813C",
"R  c #B4903E",
"E  c #87A531",
"W  c #83AE32",
"Q  c #83B234",
"!  c #89B537",
"~  c #87B438",
"^  c #8BB639",
"/  c #8DB83A",
"(  c #96B43A",
")  c #9AB43A",
"_  c #91BA3C",
"`  c #A1B33C",
"'  c #AEB53F",
"]  c #C2833D",
"[  c #978F45",
"{  c #90954A",
"}  c #B38E47",
"|  c #A3934B",
" . c #9CB644",
".. c #96B74A",
"X. c #ABB642",
"o. c #A9B945",
"O. c #BCB644",
"+. c #B3B846",
"@. c #B9B749",
"#. c #BDBF55",
"$. c #B3BF5A",
"%. c #BDBF59",
"&. c #C58641",
"*. c #CC8245",
"=. c #C68944",
"-. c #C98A47",
";. c #CB8248",
":. c #CB8E4B",
">. c #D08646",
",. c #D48C48",
"<. c #D8954C",
"1. c #DB9B4C",
"2. c #D79451",
"3. c #E09D4D",
"4. c #DCA74D",
"5. c #DCAE4E",
"6. c #C0B745",
"7. c #C3B947",
"8. c #C7BA48",
"9. c #CBBB4A",
"0. c #DDB44E",
"q. c #D3BC4C",
"w. c #DBBD4E",
"e. c #DEAE55",
"r. c #C3BD54",
"t. c #D2BE57",
"y. c #E1B14F",
"u. c #E4A857",
"i. c #E4AD55",
"p. c #EAAD53",
"a. c #E9AE5B",
"s. c #E5B551",
"d. c #EDB255",
"f. c #E6BD53",
"g. c #EDBD54",
"h. c #ECB35C",
"j. c #E8B75E",
"k. c #F1B455",
"l. c #F3BC56",
"z. c #F2B659",
"x. c #F4BC5C",
"c. c #F9BF59",
"v. c #E2AE66",
"b. c #E6B667",
"n. c #ECB463",
"m. c #ECB964",
"M. c #EDBB6A",
"N. c #F3BC63",
"B. c #F2BD6B",
"V. c #EDBC73",
"C. c #B8C364",
"Z. c #D1C154",
"A. c #D8C259",
"S. c #EDC055",
"D. c #EAC35E",
"F. c #F4C157",
"G. c #F6C259",
"H. c #FBC35A",
"J. c #CFC465",
"K. c #D6C564",
"L. c #EAC665",
"P. c #EDC769",
"I. c #ECC96D",
"U. c #F5C564",
"Y. c #FBC663",
"T. c #F4C867",
"R. c #FCC867",
"E. c #F6C46B",
"W. c #F9C66A",
"Q. c #F5C96D",
"!. c #FBC96C",
"~. c #EAC573",
"^. c #EBCC74",
"/. c #EDCE7B",
"(. c #F2C373",
"). c #F4CB73",
"_. c #FBCC73",
"`. c #F5CF7A",
"'. c #FBCE7A",
"]. c #FBD07E",
"[. c #F3C988",
"{. c #EED48A",
"}. c #F4D284",
"|. c #FBD283",
" X c #F5D58B",
".X c #FBD48B",
"XX c #EFD690",
"oX c #F7D795",
"OX c #FCD790",
"+X c #FED894",
/* pixels */
"k j j j k j j k j k k f O v g j j u x g j j j j j k d d k k h Q k d d d k k d Q d s s j d d k k k k ",
"j s j j j j j j s ~ k j v O X f t O t Q d d k ! s s s d ! d j j d k d k d s d Q d d k k s d k Q j k ",
"j s ~ Q k s h d d j z z t t c r X v s j d d j k j s s d d j j d d Q Q _ d k Q d d k d d d d s s s j ",
"j s s a d s ~ ~ d j y l O o u v V f s j k j d j d s s Q k j d Q d d k k d d d d d Q d d d d d d Q k ",
"d d d d d s s d s ^ j f V b r t t O r a / ^ k ! d s s ! Q k d Q s d d d d d s d d s s Q d k d d k k ",
"d _ / $ # # @ F s j s j $ $ .   u h b z k k k Q d d s s s d s d s s k d d d s d s d s s d d s s s s ",
"L P L * & & * ; > : : , , , 2 2 T ] , j k k j h d Q Q d d ! d Q s s ! k _ d k Q d j d k k k d k k s ",
"3 ] 0 ] ] &.&.&.&.&.&.&.] &.] &.] ] ; d k / / k s d d d d d d s s d k k d k k k d d d k k ! k k k k ",
"> ] ] ] ] &.] ] ] =.=.] &.] ] ] ] ] # d d d k s d d d d d s d s d d d k d d d d d d d d d k d s s s ",
"I ] ] &.] ] =.=.Z B } { n | &.] ] ] # W d Q ! ! d Q Q d d s k k ! d d d Q Q k k k k _ s Q Q d d k k ",
"3 5 6 ] ] 6 9 ] [ B Z S N 1 4 8 5 T T H s s s s d d s s / d d d d d d d k ! ! ! s d k d d d s d d k ",
"k U 8 ] ] ] =.=.=.N D n m &.&.&.] ] ] G s s s s s s d d Q s k d Q ! ! d k d d d d s Q d Q d s Q k k ",
"~ R &.&.&.=.&.&.T M B N A :.:.:.-.6 , F s s s s s Q s d s s s d d d d s d d Q s d s Q d / d Q ! s k ",
"j U T ] &.-.:.:.:.D N N } &.] ] ] ] ] P Q d k Q s s s Q s d k s k d d s ! s ! d ! s s s s s s s k k ",
"; 2 2 4 ] ] ] ] ] Z N M T &.=.=.] ] ] H d s k Q s s s ! Q d d s Q d d d d s s s s s s s s s s d s s ",
"; &.&.=.] ] 9 8 2 > C J 8 4 6 6 ] ] ] P d s s s s s s s s d s s d d d ! d d s s s d Q d Q s s d k k ",
"F &.&.&.&.&.&.] =.] =.] &.] 9 9 4 2 * E s s s s s s d s s s s s d d d d d Q d d k Q ! Q ! s s d Q s ",
"J ] ] ] ] ] &.=.=.] &.=.=.-.&.&.] ] < d s Q j Q j Q d s d s Q d ^ Q k j d Q k Q d k d k s s d d s s ",
"P &.&.T 9 5 2 I Y Y K K > % % % * < - d s ~ d k k d d d Q a Q d s d d j d d k k d k d ! d s d Q s s ",
"j a s s @ + + i s s s s j . $ = p k d d k s s / d k d d d d W d ! j Q d d d d k k d d d s s d d j s ",
"j a s j k d s s d s d s j Q W j ! ) X.O.9.w.f.S.S.g.Q.F.g.l.F.L.L.0.w.7.X.W d s d s s d d d k s j h ",
"j j j j Q Q d Q k k ) ` @.q.f.F.G.c.Y.(.z.p.z.h.h.n.V.j.l.h.d.b.p.p.d.d.x.F.S.r.) Q a a _ d s / d s ",
"j k W s j d Q o.9.w.S.l.i.v.k.d.p.a.M.B.oX'.Q.R.Y.Y._.H.R.!.'.|.'._.!.N.p.i.j.s.S.y.' ( Q s s d d d ",
"j s s s j +.I.!.x.d.p.k.c.N.[._._.R.H.H._.x.G.G.c.Y.Y.G.G.H.'.H.H.G.H.R.'. X^.i.4.4.s.F.8.W a k j d ",
"j s j W w.c.H.k.B.R.!._._.!.N._.H.H.c.H.H.(.H.H.G.M.H.H.H.H.'.G.F.G.H.H.!.H.c.B._.).l.4.T.I.X.d k Q ",
"~ s ) f.H.k.k._.]..XR.H.H.H.H.'.H.H.H._.'..XE.'._.[.'.'._.'.OX'.'.'.'.!.].H.H.H.F.Y.'.).a.G.Q. .s k ",
"j j K.'.B.c.'.N.H.R.!.H.H.H.R.'..X_._.R.Y.'.N.H.k.'.c.G.H.H.!.H.G.H.H.W.|.].]._.H.F._.`.E.s.g.S.d k ",
"~ o.Y.x.B.+XH.H.H.H.]._.'._.!.Y._.H.H.H.c.H._.H.k._.Y.H.H.H.!.H.F.F.l.!.Y.H.H.R.'.).).F.W.n.G.l.` k ",
"W 6.c.x._.R.|.c.!._.|.!.H.c.c.G.].H.H.H.H.G._.H.k.R._.H.H.H._.H.G.x.l.!.H.H.H.H.H.|.|.Y.c.z.N.N.Z.k ",
"Q Z.z.z.H.H._..X!.H.H.|.H.Y.N.!._.|._.].'.'.OX|.(.)..X_.'._..X_._.b.'..X_.!.R.H.H.'.H.'._.p.N.Q./.d ",
"Q Z.H.p.H.!.!._.R.H.R.|.|.!.x.c.H.].H.H.H.H.'.H.k.H.|.H.G.G.Q.F.0.f.S.'.H.H.R._.'.!.H.G.).n.H.H.).j ",
"s J.R.N.H.H.H.H.|.'.!.H.|.H.H.k.G._.H.H.H.H.OX_.N._.+X_._.).|.).m.U.G.'.G.c.G.G.|.!.D.H.l.n.H.G.'.W ",
"j J.}.U.k.H.x.!._._.H.H._.Y.H.k.z.!.|.'.'._..XE.a.z.V.d.d.k.P.x.N.R.)..X_.W.G.F.).H.H.h.5.H.).Y.Q.W ",
"j C._.U.l.z.!.R.H.].G.G.Y.'.!._.B.N.b.2.,.>.e *.e q q w e w e q e >.2.a.x.E.).).R.l.h.l.S.G.G..XY.W ",
"k $.G.].H.x.j.G.H.Y.W.W._.|.d.1.>.w w 0 q q q q 7 0 w q q 0 e q 0 q w w e :.<.M.a.k.Y.].F.H.Y.!.Q.d ",
"k  .G.G._.!.x.h.k.x.|.l.3.;.q q q q q q q q q q q q q q q w w e q 7 q e >.u.d.g.G.F.g.Y.`.!._.F.I.d ",
"k ~ U.F.H.Y.OX!.H.d.i.1.>.e q q w 0 0 0 0 q e q q q 0 q q e w 0 w e q 3.c.H._.G.S.G.G.R.oXU.G.F.J.s ",
"j j P._.H.H.!.!.'.W.H.H.!.R.u.;.0 0 0 w q q q w w e 0 0 0 0 *.0 q e ,.H.H.Y.|.!._.I._.!.|.G.H.Q.C.h ",
"..j Z.U._.!.!.H.H.!._._..X_.R.H.,.w e *.e e w q 0 w q 0 e 0 0 w q 0 n._._.!..XY.F.S.H.H.}.T.).Q...s ",
"k d ( F.G.Y..X_.H.G.H.H.|.G.Y.H.l.e *.>.*.*.*.w w w e e e 0 0 ] >.e c.H.G.H.'.H.G.S.H.!.XXT.S./.j s ",
"k s Q 9.G.H.H.].!.L.'.'..XY.H.H.G.a.w q *.&.&.w w q q e *.0 0 7 w v.Y.U.!._.|.'._._.!.Q.Q.S.H.%.s j ",
"j s s Q T.H.H._.H.F.G.H. X!._.].|.|.h.2.e q q e ;.e e e *.*.:.<.e.`.Q.U.Y.Y._.c.H.G.H.T.T.D.`.~ s / ",
"h s s j ` T.Q.|.Y.G.G.F._.H.G.G.G.'.U.!.E.d.V.B.U.c.H.H._.H.H.G.G.R.N.H.H.G.n.Y.G.R.`..X^.Q.X.s s k ",
"j Q Q Q s @.Y.U.}.!.!.!.|.!.Y.H.Y.'.R.R.W.W. XQ.!.!._._..X!._.Q.Q.}.`.'._.M.OX|.`.Q.H.Q.G.8.d d s k ",
"d Q Q ~ s j %.Q.`.S.g.G.G. XQ.P._.'._._.!.!.|.Y.Y.H.H.Y._.H.G.G.G.Q.G.f.y.G._.G.H.G.F. XK.k h k d j ",
"d d s s d d s ( ~.`.L.j.S.I.G.G.H.Y.!.H.H.H._.G.G.H.H.Y._.H.H.H.H.'.U.n.Q._. X).).Q.{.#.k d j j d k ",
"j d j d k j s d j  .+.t.K.^.^.L.Q.Q..X_.!.Q.}.).Q.Q._.'..XQ.I.).`.{.m.P.D.`.H.l.S.7.^ ^ k d / j d d ",
"k j j ^ d d s d / s j j E ( o.' X.+.r.7.9.9.A.A.q.w.w.A.K.q.9.8.q.J.7.7.8.#.` ! s s s k s d k j d d ",
"k s s k d Q d j k s d j j Q ! / d Q Q s s d k k d d d d d k j s s k d Q s Q s s s s ! Q ~ s Q k s j ",
"k s h k j Q j j j j j s j j j k d d s s s ^ k k k d d d j d d h d Q d Q s s d d s j d j k s j j h j "
};
