/* XPM */
static char *sprite_wall1712252718[] = {
/* columns rows colors chars-per-pixel */
"50 50 119 2 ",
"   c #75531D",
".  c #79541F",
"X  c #745C1E",
"o  c #426E13",
"O  c #4D6C16",
"+  c #447214",
"@  c #487517",
"#  c #4B7B17",
"$  c #4B7719",
"%  c #4E7A1B",
"&  c #52741E",
"*  c #537F1E",
"=  c #64611D",
"-  c #6C601E",
";  c #6D691D",
":  c #67711C",
">  c #68781E",
",  c #7C5620",
"<  c #7C5B21",
"1  c #547D21",
"2  c #6C6D23",
"3  c #7A6C26",
"4  c #7B6C29",
"5  c #697720",
"6  c #757325",
"7  c #707827",
"8  c #757028",
"9  c #787628",
"0  c #747E29",
"q  c #815E24",
"w  c #826327",
"e  c #856528",
"r  c #806A29",
"t  c #89682A",
"y  c #85722C",
"u  c #85792E",
"i  c #867C31",
"p  c #4E8019",
"a  c #54811E",
"s  c #5B851D",
"d  c #568B1C",
"f  c #5A8C1D",
"g  c #5B901E",
"h  c #568121",
"j  c #5A8524",
"k  c #5D8A25",
"l  c #5F8928",
"z  c #5E9221",
"x  c #648623",
"c  c #608A27",
"v  c #648D2A",
"b  c #688F2D",
"n  c #76842B",
"m  c #758B2C",
"M  c #7B892D",
"N  c #629424",
"B  c #669A24",
"V  c #699D27",
"C  c #66922A",
"Z  c #6A922E",
"A  c #679929",
"S  c #6C9D2B",
"D  c #74942B",
"F  c #7A912F",
"G  c #749B2E",
"H  c #6D9330",
"J  c #6E9A30",
"K  c #709632",
"L  c #749B34",
"P  c #789D37",
"I  c #799E38",
"U  c #6EA12A",
"Y  c #72A42E",
"T  c #79A22F",
"R  c #76AB2D",
"E  c #79AD2F",
"W  c #75A431",
"Q  c #7AA334",
"!  c #77A930",
"~  c #7BAD31",
"^  c #7CA23A",
"/  c #7EB033",
"(  c #868331",
")  c #829532",
"_  c #829D33",
"`  c #8C9D38",
"'  c #83A435",
"]  c #81AF36",
"[  c #80A63D",
"{  c #83A83F",
"}  c #83B234",
"|  c #8AB537",
" . c #84B239",
".. c #8AB63C",
"X. c #8CB83F",
"o. c #91BA3C",
"O. c #85AA40",
"+. c #89AE43",
"@. c #8DB145",
"#. c #8DB940",
"$. c #8FB448",
"%. c #91B547",
"&. c #92BD44",
"*. c #92B649",
"=. c #94B94A",
"-. c #99BD4D",
";. c #96C047",
":. c #97C148",
">. c #9CC54C",
",. c #9FC252",
"<. c #A1C554",
"1. c #A4CB53",
"2. c #AACE59",
"3. c #AAD057",
"4. c #ADD35A",
"5. c #B1D55D",
"6. c #B6DA61",
"7. c #B9DD64",
"8. c #C3E56C",
/* pixels */
"/ ~ E / / / / / / / / ~ / / / ~ / ~ / ~ ~ ~ ~ ~ ~ / ~ ! ~ ! / / / / ~ / / / / } ! R ! / E E / / / / ",
"~ R / / E E R ~ E } ~ ~ E / | E R R R / E R / | R Y R R | / ~ / E E R E R R E } E R / / E E / } E / ",
"~ R } } / E R ~ E E R } } R R / / E Z C R G c * A W Y Y ~ / R E ! } | o.R / } E E / R E R E R R R E ",
"~ ! R R E E } } E ~ E R ! Y S L W J 1 h c * * c U R ..Y ! ! W W R / ~ ! / R E R E } E E R / E R | / ",
"/ E E R E R E E E | / W c 1 1 * a j * * * a * A  ...#./ ~ ! S S R ! U Y R E E R E R R } R } E E E / ",
"E o.| R E E E E R E S j k b v b v a 1 j j V S A &.6.:.#.#. .U N S % o + k ! R ! R E R E E R E E E R ",
"/ } / R R R / / R ! j * b @.P <.O.Z H b A  .X.] #.6.>.#.#.| Y S d + o % h C ~ } E E E / E } E E E E ",
"E R R R / | | R | S h * b -.<.[ I <.Z H Z ~ &.8.>.&.#.#.#.X. .U z @ % * a a H h S / R / } } E } / / ",
"E E E } E / E ! A C * j b K K H H K H H ^ ! #.1.>.1.#.,.#.#./ V d # 1 a a * * a C ! ~ ~ E / E R R / ",
"/ / E } E / R j h 1 h v Z K L K H H *.H J U / #.&.>.&.#...! V d a a v k * a a 1 l S  .R / } E E E / ",
"} E E R E R G * a 1 b H H <.*.H L H C b C k U  .#.8.>.../ U U d a a v Q j v c h 1 a h C R E E E R / ",
"/ / } R R ~ W j j j C H K K H H 2.I l a h p U U  .>./ S B U U d a * L b H H H b K Z h h C ~ ~ } E / ",
"} } | / E Q j j H H H H P I [ ^ $.H j 1 h a z z z Y B z p d d p * * Z ^ K H ^ O.,.%.b b j A / } E } ",
"E E R E ! h * j H H H H L L Z c b b * * + + + + + d d 5 + + # h * * b H K O.K P ^ [ 2.I j j ! ~ R / ",
"~ E R ~ W a * * v H H K b v c * * * * % o o o j o + 2 4 O o + $ % * j c b I H H K [ %.H h h T E E E ",
"~ E R U h * a j H H H Z C c a * * * % + o + C ! $ h m < o o o o @ * * 1 c K K H P Z H v a h Y E } E ",
"! E ] C a * h j H H S U  .W k N s o o o * G R R T R Q n 1 $ C o o $ % h C *.$.H =.O.H b a l R E / R ",
"~ ~ b * * * * h v C W #.#. ./ Y V A U 0 u ] E } ! Y / ! ^ W Y $ o o % h H O.^ H I O.H H h h Z R R R ",
"} Y h * a 1 a a U ! ! 5.1.#.X.! V A ~ Q r ` ~ } ~ / #. .~ W S a o o a a j v L ^ H H H H h 1 1 S R R ",
"~ Y h 1 a a a a W &.1.;.;.#.#.X.Y N W R M y W ! ! -.4.=.#. .U z j o $ % 1 h l H $.H H b j * * v E R ",
"~ Y j a * * * * A #.4.>.:.:.#.#.U N E E ! r D X.>.:.>.#.#.#.! V S k + + * * h v H H H H H l 1 W / / ",
"~ ~ W a * a * a B ~ #.:.,.#. .Y k ~ | E E F 3  .4.1.>.:.#.#.~ A U ~ J + % * h * C H H H H v c X.R R ",
"/ / ] l * * * a a S ~ 2.1.~ R U g m Q R R | D T #.#.>.#.X.! B A Y W 7 + 1 + # 1 b H H H c h 1 A E E ",
"! R W j a * * a a N N ~ R B f N B 8 e ( _ E T x  .#.7... .U S B P ~ Y Y J @ % 1 c H H H j 1 a v / R ",
"/ R ~ Z a * a * * a a f z # # L ! ! m 3 w i ) N V W  .S g B B R ..#.! ! U z a p h b H H h * h A E / ",
"| R  .j a a * * 1 1 a a a + h W ~ W W G 3 3 w 6 5 : z s > U S  .4.>.#.#.W z a a 1 h c k h a 1 v R / ",
"/ R R j 1 1 j b 1 v b l % o # Y ~ $.T S V S G 9 3   X < n  .&.&.>.:.#.#./ V d 1 1 a * * * * * l / / ",
" .} Y h h C C H *.^ H v j k d ! 1.#.X.X.T A ] ' q ,   i i Q >.6.:.:.=.#.#.S p % * * a 1 * a * h ! / ",
"] R j * j H 4.*.-.^ O.H H ~  ./ 5.1...#.! V N i   t   D ! Y ..#.>.#.X./ Y d @ * a * a 1 * h * * ! / ",
"} W h c Z K I O.H I O.H H W >.7.&.&.#.#...Y k X M i . L R J ~  .7.>.| R U f # * * * a a a a * h Y R ",
"] G j H *.O.H K K H H +.v U #.;.>.#.=.X.~ N ; 8 ~ ( , D ! Y V U X.R U g B d a * * a h * a * a C ! / ",
"~ A h b K H *.@.H H H I C A ! #.4.1.X.~ Y g 2 R E ) < m } W z # g g p a a a a 1 * * * * a h Z R R E ",
"~ W h h j v { P Z =.L H L Q S T >...U U U g T | E ' < m G U * o $ h h h b l * * * * * * h ] ] R / / ",
"~ R Y j a h K L P 2.K H H v g d S S d p a Y / } R C - = o + o # h b H C H H h h h * 1 j C ! E ] | R ",
"~ ~ ~ h 1 P I ^ L H H H H H C h a d % + o + * k c o o 1 + % # 1 h H H ^ K ,.^ H j * * h T R R E / E ",
"/ R ! Z h j H H H Z H H H H Z j p a h h s a Y S a o & * * * j l l Z K I O.=.^ O.c j * k R E R E } R ",
"/ ~ E R h h Z H b Z H H H H H v a * * k U ! #.! N N S f a j H K H K +.H H H -.2.K c h S R R R R R R ",
"/ ! E R Z h j j h b H H H H H b a h h z ..#.#./  .~ U B a v H L K H H H H K H H Z j a Z } / R R R E ",
"X.R | E / S l a * j b H H b H b j U Y V #.7.>.#.#. .U N a C H H H H -.I H +.L ^ *.b a C | } } R R R ",
"} / / / E E Y j a * c H b j c j k ~ #.#.#.3.>...#...! U g C H H H H <.P H =.+.H I Z s A E R / R E R ",
"E R } } R E R N j 1 a h h * * a h Y #.8.4.=.;.;.#.#...U z C H H H H K [ P H c c b c 1 G R R R R E E ",
"E R R R E E } E ! j h a a * * * p S #.:.>.>.#.>.#.#./ B k H H H H H H K H [ h * * * A | | } E R E | ",
"/ R R / E } | o.~ R Z j j h * 1 h U ! #.#.>.:.#...! S d j H H H H v H H H Z h 1 J T E / E E E E E E ",
"E } } } R R E E ~ R R }  .v a a * p V / #.8.>. ./ U U z d H H C v j c Z v j h c ~ ] E E } E E E E / ",
"! / } | E E R R R E R E / b C C $ % B U ! ;./ U A B V d a j l h * * * h a a V R E R R R E E E / / ! ",
"/ E R E E E E R R R R R R R R R Y U z z A U V d d d d a a h h a * * C Z V U R R E R R R R E / E R / ",
"E E E E E E E E E E E / R Y R R E R ! / ! A z k l j j J k h h k Z k T R R R R R } / E | / E | E E E ",
"/ E / | E R E E | E E / R E / ~ E / ! } E ! } } R A Z / R ! ! R } R E R R } U R R R E / R E } / R ~ ",
"/ E E / R | E E E R E / E / | X.E / } R R / / / E E E E R / ! E E ~ E } R ] R R R R | } } R } / R E ",
"/ R ! / E / / / / E E E / / E / E E E R R | / / / E E E E E E E ~ } E } R E E E E E E ~ / E ~ / R / "
};
